<?xml version="1.0" encoding="iso-8859-1"?>
<!-- Generator: Adobe Illustrator 25.2.0, SVG Export Plug-In . SVG Version: 6.00 Build 0)  -->
<svg version="1.1" id="Layer_1" xmlns="http://www.w3.org/2000/svg" xmlns:xlink="http://www.w3.org/1999/xlink" x="0px" y="0px"
	 viewBox="0 0 522 407" style="enable-background:new 0 0 522 407;" xml:space="preserve">
<g>
	<path style="opacity:0.7;fill:#4D4D4D;" d="M259.362,305.771c-76.369,0-138.5-62.131-138.5-138.5s62.131-138.5,138.5-138.5
		s138.5,62.131,138.5,138.5S335.731,305.771,259.362,305.771z M259.362,35.771c-72.509,0-131.5,58.991-131.5,131.5
		s58.991,131.5,131.5,131.5s131.5-58.991,131.5-131.5S331.871,35.771,259.362,35.771z"/>
	<path style="opacity:0.6;fill:#4D4D4D;" d="M259.362,234c-6.537,0-12.997-0.944-19.203-2.805l1.931-6.438
		c5.579,1.673,11.39,2.522,17.272,2.522c33.088,0,60.008-26.92,60.008-60.008l0-0.183h6.721l0,0.158
		C326.091,204.065,296.156,234,259.362,234z M226.044,225.1c-20.609-11.898-33.411-34.057-33.411-57.829
		c0-18.559,7.437-35.798,20.94-48.54l4.612,4.888c-12.144,11.46-18.832,26.962-18.832,43.653c0,21.378,11.515,41.307,30.051,52.008
		L226.044,225.1z M317.752,153.372c-6.436-27.149-30.448-46.109-58.391-46.109c-10.592,0-21.002,2.796-30.104,8.085l-3.377-5.81
		c10.126-5.885,21.704-8.996,33.481-8.996c31.072,0,57.772,21.087,64.931,51.279L317.752,153.372z"/>
	<g>
		<path style="fill:#FFC107;" d="M180.716,175.564c0,4.841-3.961,7.085-8.186,7.085c-6.733,0-9.857-4.797-9.857-7.041
			c0-1.145,0.836-1.716,1.76-1.716c0.925,0,1.98,0.527,2.509,1.54c1.057,2.112,3.564,3.212,5.721,3.212
			c2.024,0,3.74-0.968,3.74-2.948c0-3.696-12.981-2.464-13.069-9.989v-0.088c0-4.533,4.181-6.777,8.405-6.777
			c5.324,0,8.141,3.389,8.141,4.973c0,1.188-1.1,1.98-2.156,1.98c-0.616,0-1.231-0.308-1.628-0.924
			c-0.748-1.188-2.464-1.761-4.137-1.761c-1.98,0-3.872,0.836-3.872,2.421c-0.044,3.433,12.586,2.552,12.63,9.989V175.564z"/>
		<path style="fill:#FFC107;" d="M185.025,160.293c0-0.88,1.101-1.32,2.2-1.32c1.101,0,2.2,0.44,2.2,1.32v1.013
			c1.717-1.232,3.873-1.98,6.205-1.98c5.941,0,10.518,4.709,10.518,10.869c0,6.161-4.576,10.826-10.518,10.826
			c-2.332,0-4.444-0.704-6.205-1.98l0.044,8.405c0,1.1-1.144,1.672-2.244,1.672c-1.1,0-2.2-0.528-2.2-1.672V160.293z
			 M201.747,170.195c0-3.608-2.685-6.293-6.117-6.293c-3.477,0-6.117,2.685-6.117,6.293c0,3.564,2.641,6.249,6.117,6.249
			C199.063,176.444,201.747,173.759,201.747,170.195z"/>
		<path style="fill:#FFC107;" d="M227.795,179.789c-1.849,1.496-4.181,2.376-6.601,2.376c-5.985,0-11.002-5.236-11.002-11.397
			s5.017-11.354,10.958-11.354c2.464,0,4.796,0.88,6.645,2.332v-1.32c0-1.056,1.012-1.54,2.068-1.54c1.145,0,2.332,0.572,2.332,1.54
			v20.815c0,0.88-1.1,1.276-2.2,1.276c-1.1,0-2.2-0.396-2.2-1.276V179.789z M227.751,170.767c0-3.696-2.992-6.821-6.601-6.821
			c-3.565,0-6.558,3.125-6.558,6.821s2.992,6.821,6.558,6.821C224.759,177.588,227.751,174.463,227.751,170.767z"/>
		<path style="fill:#FFC107;" d="M249.398,182.825c-6.117,0-11.046-5.236-11.046-11.838c0-6.645,4.929-11.881,11.046-11.881
			c5.633,0,9.065,4.4,9.065,5.896c0,1.232-1.188,2.112-2.288,2.112c-0.528,0-1.057-0.22-1.408-0.704
			c-1.101-1.54-3.081-2.597-5.237-2.597c-3.784,0-6.732,3.213-6.732,7.129c0,3.961,2.948,7.174,6.688,7.174
			c2.465,0,4.665-1.188,5.897-3.037c0.439-0.616,1.012-0.88,1.584-0.88c1.056,0,2.068,0.836,2.068,2.024
			C259.035,177.72,255.735,182.825,249.398,182.825z"/>
		<path style="fill:#FFC107;" d="M268.053,172.307c0.352,2.244,2.112,6.293,6.909,6.293c2.729,0,4.664-1.408,5.765-3.3
			c0.308-0.528,0.836-0.749,1.408-0.749c0.924,0,1.937,0.616,1.937,1.761c0,2.024-3.829,6.337-9.462,6.337
			c-7.261,0-11.09-6.733-11.09-11.926c0-4.709,2.905-11.397,10.694-11.397c6.864,0,10.473,6.205,10.473,10.386
			c0,1.496-0.571,2.596-2.596,2.596H268.053z M280.242,168.391c-0.396-3.257-2.992-5.149-6.117-5.149
			c-3.08,0-5.324,2.156-5.765,5.149H280.242z"/>
		<path style="fill:#FFC107;" d="M304.531,165.31h-0.221l-4.708,15.402c-0.396,1.276-1.452,1.849-2.553,1.849
			c-1.145,0-2.288-0.616-2.729-1.805l-6.953-19.011c-0.088-0.264-0.132-0.527-0.132-0.748c0-1.144,1.013-1.937,2.068-1.937
			c0.792,0,1.54,0.44,1.893,1.408l5.412,15.007h0.221l4.576-14.303c0.484-1.496,1.717-2.244,2.992-2.244
			c1.232,0,2.509,0.748,3.081,2.2l5.192,14.303h0.221l4.884-15.095c0.309-0.88,1.013-1.276,1.717-1.276
			c1.012,0,2.112,0.837,2.112,2.024c0,0.265-0.044,0.484-0.132,0.748l-6.337,18.923c-0.396,1.188-1.496,1.805-2.553,1.805
			c-1.1,0-2.2-0.616-2.597-1.805L304.531,165.31z"/>
		<path style="fill:#FFC107;" d="M342.326,179.789c-1.849,1.496-4.181,2.376-6.601,2.376c-5.985,0-11.002-5.236-11.002-11.397
			s5.017-11.354,10.958-11.354c2.464,0,4.796,0.88,6.645,2.332v-1.32c0-1.056,1.012-1.54,2.068-1.54c1.145,0,2.332,0.572,2.332,1.54
			v20.815c0,0.88-1.1,1.276-2.2,1.276c-1.1,0-2.2-0.396-2.2-1.276V179.789z M342.282,170.767c0-3.696-2.992-6.821-6.601-6.821
			c-3.565,0-6.558,3.125-6.558,6.821s2.992,6.821,6.558,6.821C339.29,177.588,342.282,174.463,342.282,170.767z"/>
		<path style="fill:#FFC107;" d="M360.277,179.613l-8.449-17.911c-0.132-0.264-0.176-0.572-0.176-0.792
			c0-1.276,1.496-2.156,2.729-2.156c0.66,0,1.232,0.264,1.452,0.748l6.821,14.654l6.072-14.479c0.265-0.616,0.881-0.88,1.541-0.88
			c1.144,0,2.508,0.836,2.508,1.805c0,0.176-0.044,0.308-0.088,0.483l-11.573,27.504c-0.221,0.484-0.66,0.66-1.232,0.66
			c-1.145,0-2.641-0.88-2.641-2.024c0-0.176,0-0.352,0.088-0.527L360.277,179.613z"/>
	</g>
	<g>
		<path style="fill:#FFC107;" d="M100.84,338.4c0-0.456,0.475-0.665,0.969-0.665c0.532,0,1.102,0.247,1.102,0.665v8.795
			c0,3.211-2.489,4.901-4.996,4.901c-2.546,0-5.11-1.71-5.11-4.882V338.4c0-0.456,0.513-0.685,1.026-0.685
			c0.513,0,1.026,0.229,1.026,0.685v8.7c0,1.976,1.52,2.982,3.021,2.982c1.5,0,2.963-1.025,2.963-2.982V338.4z"/>
		<path style="fill:#FFC107;" d="M107.415,341.041v10.448c0,0.398-0.513,0.627-1.007,0.627c-0.494,0-0.969-0.209-0.969-0.627
			v-12.254c0-1.044,0.646-1.481,1.33-1.481c0.551,0,1.121,0.285,1.425,0.741l6.763,10.657v-10.866c0-0.38,0.475-0.57,0.95-0.57
			c0.513,0,1.026,0.209,1.026,0.57v12.158c0,1.178-0.798,1.614-1.539,1.614c-0.532,0-1.045-0.209-1.273-0.551L107.415,341.041z"/>
		<path style="fill:#FFC107;" d="M128.257,347.993c0,2.546-2.185,4.065-4.73,4.065c-3.249,0-4.692-2.336-4.692-3.438
			c0-0.551,0.494-0.854,1.007-0.854c0.418,0,0.817,0.209,0.969,0.684c0.209,0.665,1.044,1.729,2.773,1.729
			c1.311,0,2.641-0.664,2.641-2.165v-0.058c-0.057-1.5-1.767-1.88-2.736-2.26c-2.298-0.894-4.464-1.273-4.578-4.161v-0.075
			c0-1.577,1.862-3.705,4.673-3.705c3.249,0,4.312,2.451,4.312,3.153c0,0.514-0.418,0.836-0.855,0.836
			c-0.361,0-0.741-0.189-0.931-0.665c-0.437-1.063-1.729-1.405-2.545-1.405c-1.52,0-2.489,0.969-2.489,1.786
			c0,1.349,1.805,1.709,2.394,1.938c1.786,0.665,4.73,1.158,4.788,4.502V347.993z"/>
		<path style="fill:#FFC107;" d="M133.901,339.9h-3.477c-0.399,0-0.608-0.493-0.608-0.969c0-0.475,0.19-0.931,0.608-0.931h9.119
			c0.437,0,0.665,0.456,0.665,0.912c0,0.494-0.247,0.987-0.665,0.987h-3.59v11.646c0,0.399-0.532,0.608-1.064,0.608
			c-0.494,0-0.988-0.19-0.988-0.608V339.9z"/>
		<path style="fill:#FFC107;" d="M150.335,347.366h-5.396l-1.52,4.218c-0.133,0.361-0.418,0.513-0.722,0.513
			c-0.494,0-1.026-0.398-1.026-0.949c0-0.114,0.019-0.229,0.057-0.343l4.711-12.48c0.19-0.476,0.627-0.685,1.083-0.685
			c0.513,0,1.007,0.247,1.178,0.685l4.825,12.519c0.057,0.134,0.076,0.247,0.076,0.361c0,0.551-0.513,0.893-0.988,0.893
			c-0.323,0-0.627-0.151-0.76-0.513L150.335,347.366z M147.618,340.394l-1.957,5.092h3.913L147.618,340.394z"/>
		<path style="fill:#FFC107;" d="M156.91,351.774c-0.57,0-0.836-0.305-0.836-0.836v-12.045c0-0.569,0.342-0.854,0.836-0.854h4.179
			c2.527,0,3.989,1.463,3.989,3.42c0,1.5-0.722,2.849-2.108,3.115c2.127,0.266,2.622,2.146,2.622,3.324
			c0,2.07-1.501,3.876-4.541,3.876H156.91z M160.576,343.718c0.626,0,2.583-0.209,2.583-1.976c0-1.634-1.843-1.805-2.451-1.805
			h-2.622v3.78H160.576z M163.692,347.746c-0.038-1.69-2.28-2.146-3.04-2.146h-2.564v4.312h2.698c1.102,0,2.906-0.209,2.906-2.108
			V347.746z"/>
		<path style="fill:#FFC107;" d="M168.557,351.792c-0.551,0-0.855-0.342-0.855-0.854v-12.729c0-0.361,0.494-0.532,0.988-0.532
			c0.513,0,1.045,0.19,1.045,0.532v11.702h6.003c0.323,0,0.513,0.513,0.513,0.988c0,0.456-0.171,0.893-0.513,0.893H168.557z"/>
		<path style="fill:#FFC107;" d="M178.93,351.811c-0.589,0-0.855-0.342-0.855-0.854v-11.74c0-0.513,0.304-0.854,0.855-0.854h7.238
			c0.437,0,0.665,0.493,0.665,0.969c0,0.475-0.209,0.931-0.665,0.931h-6.003v3.666h5.528c0.475,0,0.703,0.476,0.703,0.95
			s-0.228,0.95-0.703,0.95h-5.528v4.104h6.231c0.475,0,0.722,0.475,0.722,0.931c0,0.475-0.247,0.949-0.722,0.949H178.93z"/>
		<path style="fill:#FFC107;" d="M200.42,351.792c-0.513,0-0.836-0.266-0.836-0.854v-11.76c0-0.494,0.304-0.836,0.836-0.836h3.343
			c3.818,0,6.668,2.66,6.668,6.668c0,4.18-3.04,6.782-6.668,6.782H200.42z M203.763,349.912c3.438,0,4.788-2.868,4.788-4.882
			c0-2.242-1.52-4.825-4.788-4.825h-2.127v9.707H203.763z"/>
		<path style="fill:#FFC107;" d="M220.654,347.366h-5.396l-1.52,4.218c-0.133,0.361-0.418,0.513-0.722,0.513
			c-0.494,0-1.026-0.398-1.026-0.949c0-0.114,0.019-0.229,0.057-0.343l4.711-12.48c0.19-0.476,0.627-0.685,1.083-0.685
			c0.513,0,1.007,0.247,1.178,0.685l4.825,12.519c0.057,0.134,0.076,0.247,0.076,0.361c0,0.551-0.513,0.893-0.988,0.893
			c-0.323,0-0.627-0.151-0.76-0.513L220.654,347.366z M217.937,340.394l-1.957,5.092h3.913L217.937,340.394z"/>
		<path style="fill:#FFC107;" d="M229.432,339.9h-3.477c-0.399,0-0.608-0.493-0.608-0.969c0-0.475,0.19-0.931,0.608-0.931h9.119
			c0.437,0,0.665,0.456,0.665,0.912c0,0.494-0.247,0.987-0.665,0.987h-3.59v11.646c0,0.399-0.532,0.608-1.064,0.608
			c-0.494,0-0.988-0.19-0.988-0.608V339.9z"/>
		<path style="fill:#FFC107;" d="M245.866,347.366h-5.396l-1.52,4.218c-0.133,0.361-0.418,0.513-0.722,0.513
			c-0.494,0-1.026-0.398-1.026-0.949c0-0.114,0.019-0.229,0.057-0.343l4.711-12.48c0.19-0.476,0.627-0.685,1.083-0.685
			c0.513,0,1.007,0.247,1.178,0.685l4.825,12.519c0.057,0.134,0.076,0.247,0.076,0.361c0,0.551-0.513,0.893-0.988,0.893
			c-0.323,0-0.627-0.151-0.76-0.513L245.866,347.366z M243.15,340.394l-1.957,5.092h3.913L243.15,340.394z"/>
		<path style="fill:#FFC107;" d="M252.441,351.774c-0.57,0-0.836-0.305-0.836-0.836v-12.045c0-0.569,0.342-0.854,0.836-0.854h4.179
			c2.527,0,3.989,1.463,3.989,3.42c0,1.5-0.722,2.849-2.108,3.115c2.127,0.266,2.622,2.146,2.622,3.324
			c0,2.07-1.501,3.876-4.541,3.876H252.441z M256.108,343.718c0.626,0,2.583-0.209,2.583-1.976c0-1.634-1.843-1.805-2.451-1.805
			h-2.622v3.78H256.108z M259.223,347.746c-0.038-1.69-2.28-2.146-3.04-2.146h-2.564v4.312h2.698c1.102,0,2.906-0.209,2.906-2.108
			V347.746z"/>
		<path style="fill:#FFC107;" d="M271.573,347.366h-5.396l-1.52,4.218c-0.133,0.361-0.418,0.513-0.722,0.513
			c-0.494,0-1.026-0.398-1.026-0.949c0-0.114,0.019-0.229,0.057-0.343l4.711-12.48c0.19-0.476,0.627-0.685,1.083-0.685
			c0.513,0,1.007,0.247,1.178,0.685l4.825,12.519c0.057,0.134,0.076,0.247,0.076,0.361c0,0.551-0.513,0.893-0.988,0.893
			c-0.323,0-0.627-0.151-0.76-0.513L271.573,347.366z M268.856,340.394l-1.957,5.092h3.913L268.856,340.394z"/>
		<path style="fill:#FFC107;" d="M286.013,347.993c0,2.546-2.185,4.065-4.73,4.065c-3.249,0-4.692-2.336-4.692-3.438
			c0-0.551,0.494-0.854,1.007-0.854c0.418,0,0.817,0.209,0.969,0.684c0.209,0.665,1.044,1.729,2.773,1.729
			c1.311,0,2.641-0.664,2.641-2.165v-0.058c-0.057-1.5-1.767-1.88-2.736-2.26c-2.298-0.894-4.464-1.273-4.578-4.161v-0.075
			c0-1.577,1.862-3.705,4.673-3.705c3.249,0,4.312,2.451,4.312,3.153c0,0.514-0.418,0.836-0.855,0.836
			c-0.361,0-0.741-0.189-0.931-0.665c-0.437-1.063-1.729-1.405-2.545-1.405c-1.52,0-2.489,0.969-2.489,1.786
			c0,1.349,1.805,1.709,2.394,1.938c1.786,0.665,4.73,1.158,4.788,4.502V347.993z"/>
		<path style="fill:#FFC107;" d="M289.016,351.811c-0.589,0-0.855-0.342-0.855-0.854v-11.74c0-0.513,0.304-0.854,0.855-0.854h7.238
			c0.437,0,0.665,0.493,0.665,0.969c0,0.475-0.209,0.931-0.665,0.931h-6.003v3.666h5.528c0.475,0,0.703,0.476,0.703,0.95
			s-0.228,0.95-0.703,0.95h-5.528v4.104h6.231c0.475,0,0.722,0.475,0.722,0.931c0,0.475-0.247,0.949-0.722,0.949H289.016z"/>
		<path style="fill:#FFC107;" d="M315.254,351.963c-3.458,0-5.851-3.039-5.851-7.124c0-4.046,2.508-7.048,5.889-7.048
			c3.021,0,4.711,2.261,4.711,3.591c0,0.646-0.513,1.025-0.969,1.025c-0.342,0-0.646-0.189-0.76-0.589
			c-0.361-1.292-1.558-2.032-2.982-2.032c-2.583,0-3.818,2.621-3.818,5.072c0,2.432,1.235,5.167,3.799,5.167
			c1.71,0,2.736-0.95,3.172-2.28c0.095-0.322,0.475-0.513,0.836-0.513c0.456,0,0.912,0.267,0.912,0.874
			C320.194,349.095,318.921,351.963,315.254,351.963z"/>
		<path style="fill:#FFC107;" d="M327.813,352.001c-3.172,0-5.547-2.47-5.756-5.528c-0.038-0.532-0.057-1.007-0.057-1.481
			c0-0.589,0.019-1.159,0.057-1.748c0.19-3.115,2.603-5.528,5.775-5.528s5.566,2.413,5.737,5.528
			c0.038,0.589,0.076,1.159,0.076,1.748c0,0.475-0.019,0.949-0.057,1.481C333.361,349.532,330.967,352.001,327.813,352.001z
			 M331.67,346.055c0.019-0.36,0.038-0.76,0.038-1.196c0-0.343-0.019-0.741-0.038-1.178c-0.133-2.223-1.748-4.028-3.856-4.028
			c-2.127,0-3.724,1.806-3.837,4.009c-0.038,0.551-0.038,1.007-0.038,1.425c0,0.342,0,0.665,0.019,0.95
			c0.133,2.185,1.767,4.027,3.875,4.027S331.537,348.221,331.67,346.055z"/>
		<path style="fill:#FFC107;" d="M337.561,341.041v10.448c0,0.398-0.513,0.627-1.007,0.627c-0.494,0-0.969-0.209-0.969-0.627
			v-12.254c0-1.044,0.646-1.481,1.33-1.481c0.551,0,1.121,0.285,1.425,0.741l6.762,10.657v-10.866c0-0.38,0.476-0.57,0.951-0.57
			c0.512,0,1.025,0.209,1.025,0.57v12.158c0,1.178-0.798,1.614-1.539,1.614c-0.531,0-1.045-0.209-1.273-0.551L337.561,341.041z"/>
		<path style="fill:#FFC107;" d="M351.164,341.041v10.448c0,0.398-0.514,0.627-1.007,0.627c-0.494,0-0.97-0.209-0.97-0.627v-12.254
			c0-1.044,0.646-1.481,1.33-1.481c0.551,0,1.121,0.285,1.426,0.741l6.762,10.657v-10.866c0-0.38,0.476-0.57,0.951-0.57
			c0.512,0,1.025,0.209,1.025,0.57v12.158c0,1.178-0.798,1.614-1.539,1.614c-0.531,0-1.045-0.209-1.273-0.551L351.164,341.041z"/>
		<path style="fill:#FFC107;" d="M363.704,351.811c-0.589,0-0.854-0.342-0.854-0.854v-11.74c0-0.513,0.304-0.854,0.854-0.854h7.237
			c0.438,0,0.666,0.493,0.666,0.969c0,0.475-0.209,0.931-0.666,0.931h-6.002v3.666h5.527c0.475,0,0.703,0.476,0.703,0.95
			s-0.229,0.95-0.703,0.95h-5.527v4.104h6.23c0.475,0,0.722,0.475,0.722,0.931c0,0.475-0.247,0.949-0.722,0.949H363.704z"/>
		<path style="fill:#FFC107;" d="M379.987,351.963c-3.458,0-5.852-3.039-5.852-7.124c0-4.046,2.508-7.048,5.889-7.048
			c3.021,0,4.712,2.261,4.712,3.591c0,0.646-0.513,1.025-0.969,1.025c-0.343,0-0.646-0.189-0.761-0.589
			c-0.36-1.292-1.557-2.032-2.982-2.032c-2.583,0-3.818,2.621-3.818,5.072c0,2.432,1.235,5.167,3.8,5.167
			c1.71,0,2.735-0.95,3.173-2.28c0.095-0.322,0.475-0.513,0.836-0.513c0.455,0,0.912,0.267,0.912,0.874
			C384.926,349.095,383.653,351.963,379.987,351.963z"/>
		<path style="fill:#FFC107;" d="M390.57,339.9h-3.477c-0.399,0-0.608-0.493-0.608-0.969c0-0.475,0.19-0.931,0.608-0.931h9.118
			c0.438,0,0.666,0.456,0.666,0.912c0,0.494-0.248,0.987-0.666,0.987h-3.59v11.646c0,0.399-0.532,0.608-1.064,0.608
			c-0.494,0-0.987-0.19-0.987-0.608V339.9z"/>
		<path style="fill:#FFC107;" d="M399.5,338.362c0-0.418,0.512-0.608,1.044-0.608c0.513,0,1.026,0.19,1.026,0.608v13.089
			c0,0.398-0.532,0.607-1.045,0.607c-0.514,0-1.025-0.209-1.025-0.607V338.362z"/>
		<path style="fill:#FFC107;" d="M409.93,352.001c-3.172,0-5.547-2.47-5.756-5.528c-0.038-0.532-0.057-1.007-0.057-1.481
			c0-0.589,0.019-1.159,0.057-1.748c0.189-3.115,2.603-5.528,5.775-5.528c3.172,0,5.565,2.413,5.736,5.528
			c0.038,0.589,0.076,1.159,0.076,1.748c0,0.475-0.02,0.949-0.057,1.481C415.477,349.532,413.083,352.001,409.93,352.001z
			 M413.786,346.055c0.019-0.36,0.038-0.76,0.038-1.196c0-0.343-0.02-0.741-0.038-1.178c-0.133-2.223-1.747-4.028-3.856-4.028
			c-2.127,0-3.724,1.806-3.838,4.009c-0.037,0.551-0.037,1.007-0.037,1.425c0,0.342,0,0.665,0.019,0.95
			c0.133,2.185,1.767,4.027,3.876,4.027C412.058,350.064,413.654,348.221,413.786,346.055z"/>
		<path style="fill:#FFC107;" d="M419.678,341.041v10.448c0,0.398-0.514,0.627-1.008,0.627s-0.969-0.209-0.969-0.627v-12.254
			c0-1.044,0.646-1.481,1.33-1.481c0.551,0,1.121,0.285,1.425,0.741l6.763,10.657v-10.866c0-0.38,0.475-0.57,0.95-0.57
			c0.513,0,1.026,0.209,1.026,0.57v12.158c0,1.178-0.799,1.614-1.539,1.614c-0.532,0-1.045-0.209-1.273-0.551L419.678,341.041z"/>
		<path style="fill:#FFC107;" d="M128.903,378.001c-3.172,0-5.547-2.47-5.756-5.528c-0.038-0.532-0.057-1.007-0.057-1.481
			c0-0.589,0.019-1.159,0.057-1.748c0.19-3.115,2.603-5.528,5.775-5.528s5.566,2.413,5.737,5.528
			c0.038,0.589,0.076,1.159,0.076,1.748c0,0.475-0.019,0.949-0.057,1.481C134.45,375.532,132.056,378.001,128.903,378.001z
			 M132.76,372.055c0.019-0.36,0.038-0.76,0.038-1.196c0-0.343-0.019-0.741-0.038-1.178c-0.133-2.223-1.748-4.028-3.856-4.028
			c-2.127,0-3.724,1.806-3.837,4.009c-0.038,0.551-0.038,1.007-0.038,1.425c0,0.342,0,0.665,0.019,0.95
			c0.133,2.185,1.767,4.027,3.875,4.027S132.627,374.221,132.76,372.055z"/>
		<path style="fill:#FFC107;" d="M138.802,372.017v5.472c0,0.437-0.494,0.646-0.988,0.646c-0.513,0-1.045-0.228-1.045-0.646V365.16
			c0-0.514,0.304-0.855,0.855-0.855h7.257c0.437,0,0.665,0.476,0.665,0.969c0,0.476-0.228,0.969-0.665,0.969h-6.079v3.876h5.452
			c0.437,0,0.684,0.494,0.684,0.987c0,0.456-0.228,0.912-0.684,0.912H138.802z"/>
		<path style="fill:#FFC107;" d="M163.35,377.963c-3.458,0-5.851-3.039-5.851-7.124c0-4.046,2.508-7.048,5.889-7.048
			c3.021,0,4.711,2.261,4.711,3.591c0,0.646-0.513,1.025-0.969,1.025c-0.342,0-0.646-0.189-0.76-0.589
			c-0.361-1.292-1.558-2.032-2.982-2.032c-2.583,0-3.818,2.621-3.818,5.072c0,2.432,1.235,5.167,3.799,5.167
			c1.71,0,2.736-0.95,3.172-2.28c0.095-0.322,0.475-0.513,0.836-0.513c0.456,0,0.912,0.267,0.912,0.874
			C168.289,375.095,167.016,377.963,163.35,377.963z"/>
		<path style="fill:#FFC107;" d="M175.908,378.001c-3.172,0-5.547-2.47-5.756-5.528c-0.038-0.532-0.057-1.007-0.057-1.481
			c0-0.589,0.019-1.159,0.057-1.748c0.19-3.115,2.603-5.528,5.775-5.528s5.566,2.413,5.737,5.528
			c0.038,0.589,0.076,1.159,0.076,1.748c0,0.475-0.019,0.949-0.057,1.481C181.456,375.532,179.062,378.001,175.908,378.001z
			 M179.765,372.055c0.019-0.36,0.038-0.76,0.038-1.196c0-0.343-0.019-0.741-0.038-1.178c-0.133-2.223-1.748-4.028-3.856-4.028
			c-2.127,0-3.724,1.806-3.837,4.009c-0.038,0.551-0.038,1.007-0.038,1.425c0,0.342,0,0.665,0.019,0.95
			c0.133,2.185,1.767,4.027,3.875,4.027S179.632,374.221,179.765,372.055z"/>
		<path style="fill:#FFC107;" d="M192.001,364.4c0-0.456,0.475-0.665,0.969-0.665c0.532,0,1.102,0.247,1.102,0.665v8.795
			c0,3.211-2.489,4.901-4.996,4.901c-2.546,0-5.11-1.71-5.11-4.882V364.4c0-0.456,0.513-0.685,1.026-0.685
			c0.513,0,1.026,0.229,1.026,0.685v8.7c0,1.976,1.52,2.982,3.021,2.982c1.5,0,2.963-1.025,2.963-2.982V364.4z"/>
		<path style="fill:#FFC107;" d="M196.695,364.855c0-0.493,0.399-0.836,0.855-0.836h4.141c3.344,0,4.389,1.768,4.389,3.895v0.058
			c0,1.425-0.836,2.754-2.147,3.457c2.318,0.798,1.52,3.382,2.318,5.604c0.057,0.133,0.076,0.266,0.076,0.38
			c0,0.513-0.456,0.816-0.912,0.816c-0.38,0-0.76-0.189-0.969-0.627c-0.684-1.558,0.057-5.053-2.831-5.642h-2.907v5.509
			c0,0.38-0.494,0.551-1.007,0.551c-0.494,0-1.007-0.171-1.007-0.551V364.855z M201.539,370.194c1.539,0,2.622-0.988,2.622-2.261
			c0-1.482-0.931-2.146-2.622-2.146h-2.812v4.407H201.539z"/>
		<path style="fill:#FFC107;" d="M217.651,373.993c0,2.546-2.185,4.065-4.73,4.065c-3.249,0-4.692-2.336-4.692-3.438
			c0-0.551,0.494-0.854,1.007-0.854c0.418,0,0.817,0.209,0.969,0.684c0.209,0.665,1.044,1.729,2.773,1.729
			c1.311,0,2.641-0.664,2.641-2.165v-0.058c-0.057-1.5-1.767-1.88-2.736-2.26c-2.298-0.894-4.464-1.273-4.578-4.161v-0.075
			c0-1.577,1.862-3.705,4.673-3.705c3.249,0,4.312,2.451,4.312,3.153c0,0.514-0.418,0.836-0.855,0.836
			c-0.361,0-0.741-0.189-0.931-0.665c-0.437-1.063-1.729-1.405-2.545-1.405c-1.52,0-2.489,0.969-2.489,1.786
			c0,1.349,1.805,1.709,2.394,1.938c1.786,0.665,4.73,1.158,4.788,4.502V373.993z"/>
		<path style="fill:#FFC107;" d="M220.654,377.811c-0.589,0-0.855-0.342-0.855-0.854v-11.74c0-0.513,0.304-0.854,0.855-0.854h7.238
			c0.437,0,0.665,0.493,0.665,0.969c0,0.475-0.209,0.931-0.665,0.931h-6.003v3.666h5.528c0.475,0,0.703,0.476,0.703,0.95
			s-0.228,0.95-0.703,0.95h-5.528v4.104h6.231c0.475,0,0.722,0.475,0.722,0.931c0,0.475-0.247,0.949-0.722,0.949H220.654z"/>
		<path style="fill:#FFC107;" d="M241.744,364.362c0-0.418,0.513-0.608,1.045-0.608c0.513,0,1.025,0.19,1.025,0.608v13.089
			c0,0.398-0.532,0.607-1.044,0.607c-0.513,0-1.026-0.209-1.026-0.607V364.362z"/>
		<path style="fill:#FFC107;" d="M265.816,373.993c0,2.546-2.185,4.065-4.73,4.065c-3.249,0-4.692-2.336-4.692-3.438
			c0-0.551,0.494-0.854,1.007-0.854c0.418,0,0.817,0.209,0.969,0.684c0.209,0.665,1.044,1.729,2.773,1.729
			c1.311,0,2.641-0.664,2.641-2.165v-0.058c-0.057-1.5-1.767-1.88-2.736-2.26c-2.298-0.894-4.464-1.273-4.578-4.161v-0.075
			c0-1.577,1.862-3.705,4.673-3.705c3.249,0,4.312,2.451,4.312,3.153c0,0.514-0.418,0.836-0.855,0.836
			c-0.361,0-0.741-0.189-0.931-0.665c-0.437-1.063-1.729-1.405-2.545-1.405c-1.52,0-2.489,0.969-2.489,1.786
			c0,1.349,1.805,1.709,2.394,1.938c1.786,0.665,4.73,1.158,4.788,4.502V373.993z"/>
		<path style="fill:#FFC107;" d="M271.46,365.9h-3.477c-0.399,0-0.608-0.493-0.608-0.969c0-0.475,0.19-0.931,0.608-0.931h9.119
			c0.437,0,0.665,0.456,0.665,0.912c0,0.494-0.247,0.987-0.665,0.987h-3.59v11.646c0,0.399-0.532,0.608-1.064,0.608
			c-0.494,0-0.988-0.19-0.988-0.608V365.9z"/>
		<path style="fill:#FFC107;" d="M280.39,364.362c0-0.418,0.513-0.608,1.045-0.608c0.513,0,1.025,0.19,1.025,0.608v13.089
			c0,0.398-0.532,0.607-1.044,0.607c-0.513,0-1.026-0.209-1.026-0.607V364.362z"/>
		<path style="fill:#FFC107;" d="M286.052,377.792c-0.551,0-0.855-0.342-0.855-0.854v-12.729c0-0.361,0.494-0.532,0.988-0.532
			c0.513,0,1.045,0.19,1.045,0.532v11.702h6.003c0.323,0,0.513,0.513,0.513,0.988c0,0.456-0.171,0.893-0.513,0.893H286.052z"/>
		<path style="fill:#FFC107;" d="M296.274,377.792c-0.551,0-0.855-0.342-0.855-0.854v-12.729c0-0.361,0.494-0.532,0.988-0.532
			c0.513,0,1.045,0.19,1.045,0.532v11.702h6.003c0.323,0,0.513,0.513,0.513,0.988c0,0.456-0.171,0.893-0.513,0.893H296.274z"/>
		<path style="fill:#FFC107;" d="M316.451,377.792c-0.551,0-0.855-0.342-0.855-0.854v-12.729c0-0.361,0.494-0.532,0.988-0.532
			c0.513,0,1.045,0.19,1.045,0.532v11.702h6.003c0.323,0,0.513,0.513,0.513,0.988c0,0.456-0.171,0.893-0.513,0.893H316.451z"/>
		<path style="fill:#FFC107;" d="M331.442,378.001c-3.172,0-5.547-2.47-5.756-5.528c-0.038-0.532-0.057-1.007-0.057-1.481
			c0-0.589,0.019-1.159,0.057-1.748c0.19-3.115,2.603-5.528,5.775-5.528s5.566,2.413,5.737,5.528
			c0.038,0.589,0.076,1.159,0.076,1.748c0,0.475-0.019,0.949-0.057,1.481C336.989,375.532,334.595,378.001,331.442,378.001z
			 M335.298,372.055c0.019-0.36,0.038-0.76,0.038-1.196c0-0.343-0.019-0.741-0.038-1.178c-0.133-2.223-1.748-4.028-3.856-4.028
			c-2.127,0-3.724,1.806-3.837,4.009c-0.038,0.551-0.038,1.007-0.038,1.425c0,0.342,0,0.665,0.019,0.95
			c0.133,2.185,1.767,4.027,3.875,4.027S335.165,374.221,335.298,372.055z"/>
		<path style="fill:#FFC107;" d="M338.681,364.798c-0.038-0.114-0.057-0.209-0.057-0.304c0-0.551,0.532-0.798,1.026-0.798
			c0.361,0,0.704,0.133,0.779,0.398l3.704,11.722l3.705-11.684c0.076-0.266,0.361-0.38,0.684-0.38c0.494,0,1.045,0.304,1.045,0.836
			c0,0.095,0,0.19-0.038,0.285l-4.122,12.614c-0.152,0.418-0.723,0.627-1.311,0.627c-0.57,0-1.141-0.209-1.273-0.627
			L338.681,364.798z"/>
		<path style="fill:#FFC107;" d="M352.399,377.811c-0.588,0-0.854-0.342-0.854-0.854v-11.74c0-0.513,0.304-0.854,0.854-0.854h7.238
			c0.438,0,0.665,0.493,0.665,0.969c0,0.475-0.209,0.931-0.665,0.931h-6.003v3.666h5.528c0.475,0,0.703,0.476,0.703,0.95
			s-0.229,0.95-0.703,0.95h-5.528v4.104h6.231c0.475,0,0.721,0.475,0.721,0.931c0,0.475-0.246,0.949-0.721,0.949H352.399z"/>
		<path style="fill:#FFC107;" d="M376.186,372.15l-4.084-7.199c-0.057-0.096-0.076-0.19-0.076-0.285
			c0-0.475,0.666-0.931,1.235-0.931c0.266,0,0.513,0.095,0.646,0.342l3.306,5.908l3.249-5.966c0.113-0.189,0.342-0.284,0.607-0.284
			c0.532,0,1.178,0.36,1.178,0.893c0,0.114-0.019,0.228-0.095,0.361l-3.933,7.066v5.566c0,0.361-0.494,0.532-1.007,0.532
			s-1.026-0.171-1.026-0.532V372.15z"/>
		<path style="fill:#FFC107;" d="M389.714,378.001c-3.173,0-5.548-2.47-5.757-5.528c-0.037-0.532-0.057-1.007-0.057-1.481
			c0-0.589,0.02-1.159,0.057-1.748c0.19-3.115,2.604-5.528,5.775-5.528c3.173,0,5.566,2.413,5.738,5.528
			c0.037,0.589,0.075,1.159,0.075,1.748c0,0.475-0.019,0.949-0.057,1.481C395.262,375.532,392.867,378.001,389.714,378.001z
			 M393.571,372.055c0.02-0.36,0.038-0.76,0.038-1.196c0-0.343-0.019-0.741-0.038-1.178c-0.133-2.223-1.748-4.028-3.856-4.028
			c-2.128,0-3.724,1.806-3.837,4.009c-0.039,0.551-0.039,1.007-0.039,1.425c0,0.342,0,0.665,0.02,0.95
			c0.133,2.185,1.767,4.027,3.875,4.027C391.842,376.064,393.438,374.221,393.571,372.055z"/>
		<path style="fill:#FFC107;" d="M405.807,364.4c0-0.456,0.475-0.665,0.969-0.665c0.531,0,1.102,0.247,1.102,0.665v8.795
			c0,3.211-2.488,4.901-4.996,4.901c-2.546,0-5.11-1.71-5.11-4.882V364.4c0-0.456,0.513-0.685,1.026-0.685
			c0.512,0,1.025,0.229,1.025,0.685v8.7c0,1.976,1.52,2.982,3.021,2.982s2.964-1.025,2.964-2.982V364.4z"/>
	</g>
	<path style="opacity:0.85;fill:#4D4D4D;" d="M522.5,407.5h-523v-408h523V407.5z M4.5,402.5h513V4.5H4.5V402.5z"/>
</g>
</svg>
