<?xml version="1.0" encoding="iso-8859-1"?>
<!-- Generator: Adobe Illustrator 25.2.0, SVG Export Plug-In . SVG Version: 6.00 Build 0)  -->
<svg version="1.1" id="Layer_1" xmlns="http://www.w3.org/2000/svg" xmlns:xlink="http://www.w3.org/1999/xlink" x="0px" y="0px"
	 viewBox="0 0 341 318" style="enable-background:new 0 0 341 318;" xml:space="preserve">
<g id="logo">
	<g>
		<circle style="fill:#6C63FF;" cx="229.5" cy="16.5" r="2.5"/>
		<circle style="fill:#6C63FF;" cx="192.5" cy="41.5" r="2.5"/>
		<circle style="fill:#6C63FF;" cx="177.5" cy="44.5" r="2.5"/>
		<circle style="fill:#6C63FF;" cx="97.5" cy="110.5" r="2.5"/>
		<circle style="fill:#6C63FF;" cx="130.5" cy="129.5" r="4.5"/>
		<polygon style="fill:#6C63FF;" points="128.5,64.5 102.5,66.5 128.5,68.5 131.021,93.426 133.5,68.5 158.5,66.5 133.5,64.5 
			131.021,39 		"/>
		<circle style="fill:#6C63FF;" cx="328" cy="135" r="2"/>
		<circle style="fill:#6C63FF;" cx="329" cy="148" r="2"/>
		<circle style="fill:#6C63FF;" cx="196" cy="198" r="2"/>
		<circle style="fill:#6C63FF;" cx="319.5" cy="142.5" r="2.5"/>
		<circle style="fill:#6C63FF;" cx="279.5" cy="149.5" r="3.5"/>
		<circle style="fill:#6C63FF;" cx="227.5" cy="191.5" r="3.5"/>
		<polygon style="fill:#6C63FF;" points="275.5,197.5 274.5,205.5 267.017,206.5 274.5,207.5 275.5,215.5 276.5,207.503 284,206 
			276.5,205.5 		"/>
	</g>
	<path style="fill:#6C63FF;enable-background:new    ;" d="M299,36c0-6-1.553-7-1.553-7c-0.553-1-8.447-1-8.447-1s-8-1-19,1
		c-12.941,2.353-24,16-24,16l-23,23c-3,3-22,2-22,2c-12,1-19,7-19,7l-9,8c-5,3-2,8-2,8l10,14c2,2,0,3,0,3l-15,14c-4,4,0,7,0,7
		c2,1,1,2,1,2c-2,0-1.426,2.355-1.426,2.355C160.149,134.71,162,139,162,139c-7-2-6,4-6,4c-8-2-8,6-8,6c-4,0-5,3-5,3c-4-2-7,2-7,2
		c-5-5-9,1-9,1c-3-2-9,0-9,0c0-6-5-6-5-6c-9-11-18-11.532-18-11.532C102,104.936,65,101,65,101c6-12,1-21,1-21c5-5,6-12,6-12
		c-57.319,43.213-55,98-55,98c-6,97,74,132,74,132c108,46,166-38,166-38c-6-1-9,1-9,1c-19-32-45.667-9.149-45.667-9.149
		C200.667,229.702,181,229,181,229c0-14-5.833-19.277-5.833-19.277C176.333,197.447,171,191,171,191c5,0,4-6,4-6c6-1,5-7,5-7
		c7-1,5-6,5-6c4,0,4-5,4-5c1,0,2-2,2-2c3,0,4-4,4-4c5,1,7.333-1.66,7.333-1.66L216,145c1-1,3,0,3,0c8,7,16,10,16,10
		c4,1,6.362-2,6.362-2c8.362-7,12.638-17,12.638-17c3-7,2-23,2-23c0-9,5-12,5-12l29-29c6-6,8-16,8-16C300,47,299,36,299,36z
		 M201,135l-13,13c0,0-2,2.085,0,5.043l2,1.957c0,0-1,2,0,3c0,0-5-1-4,4c0,0-8-1-7,6c0,0-5-2-7,5c0,0-6-1-7,5c0,0-5-3-7,3
		c0,0-3-2-8-2c0,0,2-1-2-3c0,0,7-3,1-9c0,0,4-2,2-5c0,0,5,1,6-6c0,0,4,0,4-7c0,0,6,0,4-7c0,0,6,2,7-5c0,0,3,5,8-1l11-11
		c0,0,2.298-3,5,0c0.955,1.06,1.228,1.398,1.191,1.402L201,130C201,130,204,133,201,135z M263,80l-33,18l16-17l-10-4l32-19l-16,19
		L263,80z M279,48c-6,6-47.191,30-47.191,30L239,80c4,1,3,3,3,3l-38,40c-4,4-5,1-5,1l-4-5c-1-1-2,0-2,0l-14,14
		c-0.165,0.247-1.31,1.479-1.493,1.643C176,136,174,135,174,135l-5-4.851c-2-1.851,0-3.149,0-3.149l15-15c3-3,1-4,1-4l-10-15
		c-2-3,0-4.468,0-4.468C186,78.064,185,79,193,76c0.101-0.038,0.203-0.075,0.307-0.112C201.377,73.025,216,74,216,74c5,0,11-5,11-5
		l28-28c5-6,15.362-8,15.362-8C286.723,30,294,33,294,33L279,48z"/>
</g>
<circle style="fill:#FFFFFF;" cx="-1104.421" cy="473.597" r="2.624"/>
<g id="backgroundSpace">
	<polygon style="fill:#FFFFFF;" points="-1364.509,276.334 -1365.935,276.334 -1365.935,274.907 -1367.362,274.907 
		-1367.362,276.334 -1368.788,276.334 -1368.788,277.76 -1367.362,277.76 -1367.362,279.186 -1365.935,279.186 -1365.935,277.76 
		-1364.509,277.76 	"/>
	<path style="fill:#6C63FF;" d="M-516.086,448.015c-8.493,0.73-17.038,0.616-25.508-0.341
		c-93.119-10.295-219.923-7.367-323.29,56.68c-142.956,88.56-366.995,12.745-465.823-28.501
		c-75.511-31.503-114.713-108.663-91.166-181.089c0.332-1.022,0.672-2.044,1.031-3.067c14.817-43.041,44.064-76.727,80.282-94.583
		c31.568-15.563,77.657-48.06,98.165-110.505c8.472-25.784,20.093-50.04,35.187-71.183
		c40.417-56.624,125.027-140.949,270.543-140.424c25.513,0.124,50.835,4.41,74.968,12.69
		c53.162,18.114,101.176,54.939,137.79,105.992c23.362,32.562,58.374,62.831,108.497,65.299
		c69.563,3.444,135.948,35.831,185.749,93.468c1.437,1.658,2.855,3.324,4.273,5.01
		C-336.718,263.095-398.306,437.719-516.086,448.015z"/>
	<g style="opacity:0.7;">
		
			<linearGradient id="SVGID_1_" gradientUnits="userSpaceOnUse" x1="-1435.2195" y1="924.7073" x2="-1435.2195" y2="950.1233" gradientTransform="matrix(1 0 0 -1 262.0551 1362.3622)">
			<stop  offset="0" style="stop-color:#808080;stop-opacity:0.25"/>
			<stop  offset="0.54" style="stop-color:#808080;stop-opacity:0.12"/>
			<stop  offset="1" style="stop-color:#808080;stop-opacity:0.1"/>
		</linearGradient>
		<circle style="fill:url(#SVGID_1_);" cx="-1173.164" cy="424.947" r="12.708"/>
	</g>
	<circle style="opacity:0.2;enable-background:new    ;" cx="-1173.164" cy="424.947" r="12.137"/>
	<circle style="fill:#FFFFFF;" cx="-1241.631" cy="177.076" r="4.696"/>
	<circle style="fill:#FFFFFF;" cx="-523.351" cy="346.516" r="2.624"/>
	<circle style="fill:#FFFFFF;" cx="-673.453" cy="110.773" r="2.624"/>
	<circle style="fill:#FFFFFF;" cx="-1158.753" cy="23.29" r="4.696"/>
	<polygon style="fill:#FFFFFF;" points="-1287.497,340.511 -1291.775,340.511 -1291.775,336.232 -1293.201,336.232 
		-1293.201,340.511 -1297.48,340.511 -1297.48,341.937 -1293.201,341.937 -1293.201,347.641 -1291.775,347.641 -1291.775,341.937 
		-1287.497,341.937 	"/>
	<polygon style="fill:#FFFFFF;" points="-1183.387,339.085 -1187.666,339.085 -1187.666,334.806 -1189.092,334.806 
		-1189.092,339.085 -1193.37,339.085 -1193.37,340.511 -1189.092,340.511 -1189.092,344.789 -1187.666,344.789 -1187.666,340.511 
		-1183.387,340.511 	"/>
	<polygon style="fill:#FFFFFF;" points="-1032.215,424.654 -1036.493,424.654 -1036.493,420.375 -1037.919,420.375 
		-1037.919,424.654 -1042.198,424.654 -1042.198,426.08 -1037.919,426.08 -1037.919,430.359 -1036.493,430.359 -1036.493,426.08 
		-1032.215,426.08 	"/>
	<polygon style="fill:#FFFFFF;" points="-823.996,-84.484 -825.422,-84.484 -825.422,-85.91 -826.848,-85.91 -826.848,-84.484 
		-828.274,-84.484 -828.274,-83.058 -826.848,-83.058 -826.848,-81.632 -825.422,-81.632 -825.422,-83.058 -823.996,-83.058 	"/>
	<polygon style="fill:#FFFFFF;" points="-551.6,90.933 -554.452,90.933 -554.452,89.507 -553.026,89.507 -553.026,90.933 
		-557.305,90.933 -557.305,92.359 -554.452,92.359 -554.452,93.786 -553.026,93.786 -553.026,92.359 -551.6,92.359 	"/>
	<polygon style="fill:#FFFFFF;" points="-712.756,205.026 -714.182,205.026 -714.182,203.6 -715.608,203.6 -715.608,205.026 
		-717.034,205.026 -717.034,206.452 -715.608,206.452 -715.608,207.878 -714.182,207.878 -714.182,206.452 -712.756,206.452 	"/>
	<polygon style="fill:#FFFFFF;" points="-1286.071,433.211 -1287.497,433.211 -1287.497,431.785 -1288.923,431.785 
		-1288.923,433.211 -1290.349,433.211 -1290.349,434.637 -1288.923,434.637 -1288.923,436.063 -1287.497,436.063 -1287.497,434.637 
		-1286.071,434.637 	"/>
	<polygon style="fill:#FFFFFF;" points="-1040.772,-61.665 -1043.624,-61.665 -1043.624,-63.092 -1042.198,-63.092 
		-1042.198,-61.665 -1045.05,-61.665 -1045.05,-60.239 -1043.624,-60.239 -1043.624,-58.813 -1042.198,-58.813 -1042.198,-60.239 
		-1040.772,-60.239 	"/>
	<polygon style="fill:#FFFFFF;" points="-1156.29,213.583 -1157.717,213.583 -1157.717,212.157 -1159.143,212.157 
		-1159.143,213.583 -1160.569,213.583 -1160.569,215.009 -1159.143,215.009 -1159.143,216.435 -1157.717,216.435 -1157.717,215.009 
		-1156.29,215.009 	"/>
	<polygon style="fill:#FFFFFF;" points="-1132.046,135.144 -1134.898,135.144 -1134.898,133.718 -1133.472,133.718 
		-1133.472,135.144 -1134.898,135.144 -1134.898,136.57 -1134.898,136.57 -1134.898,137.996 -1133.472,137.996 -1133.472,136.57 
		-1132.046,136.57 	"/>
	<g style="opacity:0.7;">
		
			<linearGradient id="SVGID_2_" gradientUnits="userSpaceOnUse" x1="-1001.7745" y1="1044.3652" x2="-1001.7745" y2="1065.5822" gradientTransform="matrix(1 0 0 -1 262.0551 1362.3622)">
			<stop  offset="0" style="stop-color:#808080;stop-opacity:0.25"/>
			<stop  offset="0.54" style="stop-color:#808080;stop-opacity:0.12"/>
			<stop  offset="1" style="stop-color:#808080;stop-opacity:0.1"/>
		</linearGradient>
		<circle style="fill:url(#SVGID_2_);" cx="-739.719" cy="307.388" r="10.608"/>
	</g>
	<circle style="opacity:0.2;enable-background:new    ;" cx="-739.719" cy="307.388" r="9.826"/>
	<circle style="opacity:0.2;enable-background:new    ;" cx="-713.263" cy="376.555" r="10.986"/>
	<g id="moon">
		<path style="fill:#CCCCCC;enable-background:new    ;" d="M-694.851,74.815c-0.006,35.082-27.27,64.122-62.281,66.338
			c-1.373,0-2.786,0.143-4.2,0.143c-36.728,0.022-66.519-29.734-66.541-66.462c-0.022-36.728,29.734-66.519,66.462-66.541
			c11.703-0.007,23.2,3.074,33.33,8.932l0,0c7.7,4.468,14.429,10.43,19.791,17.537l0,0
			C-699.555,46.287-694.835,60.355-694.851,74.815z"/>
		<g style="opacity:0.7;">
			<path style="opacity:0.1;fill:#333333;enable-background:new    ;" d="M-777.702,32.632c-3.437,1.479-6.753,3.226-9.916,5.224
				c-2.112,1.154-3.928,2.78-5.306,4.753c-1.397,2.031-1.446,4.701-0.123,6.781c1.618,2.213,4.733,2.54,7.478,2.704
				c2.883,0.367,5.811,0.073,8.564-0.86c1.858-0.919,3.548-2.145,4.999-3.626l5.716-5.183c2.049-1.803,4.097-4.282,3.298-6.822
				c-0.96-1.843-2.787-3.077-4.855-3.278c-4.927-0.96-10.036-0.062-14.341,2.52"/>
			<g style="opacity:0.1;">
				<circle style="fill:#333333;" cx="-801.569" cy="101.06" r="3.503"/>
			</g>
			<g style="opacity:0.1;">
				<circle style="fill:#333333;" cx="-730.438" cy="78.892" r="12.825"/>
			</g>
			<g style="opacity:0.1;">
				<path style="fill:#333333;" d="M-708.168,34.763L-708.168,34.763c-0.108,9.662-8.028,17.408-17.69,17.3
					c-9.662-0.108-17.408-8.028-17.3-17.69c0.097-8.693,6.562-15.996,15.179-17.147l0,0
					C-720.272,21.691-713.536,27.654-708.168,34.763z"/>
			</g>
			<g style="opacity:0.1;">
				<path style="fill:#333333;" d="M-706.98,113.086c-11.585,16.49-30.039,26.818-50.153,28.068c0-0.922-0.123-1.844-0.123-2.786
					c0.017-17.402,14.137-31.496,31.54-31.479C-718.968,106.894-712.4,109.067-706.98,113.086L-706.98,113.086z"/>
			</g>
		</g>
	</g>
	
		<linearGradient id="SVGID_3_" gradientUnits="userSpaceOnUse" x1="-1326.491" y1="1080.2203" x2="-1326.491" y2="1124.3392" gradientTransform="matrix(1 0 0 -1 229.6451 1319.4722)">
		<stop  offset="0" style="stop-color:#808080;stop-opacity:0.25"/>
		<stop  offset="0.54" style="stop-color:#808080;stop-opacity:0.12"/>
		<stop  offset="1" style="stop-color:#808080;stop-opacity:0.1"/>
	</linearGradient>
	<path style="fill:url(#SVGID_3_);" d="M-1079.097,203.908L-1079.097,203.908c-1.783-2.358-4.018-4.336-6.575-5.82l0,0
		c-11.358-6.664-26.224-2.033-31.565,10.498c-2.784,6.532-2.226,14.153,1.546,20.168c4.264,6.798,11.497,10.541,18.968,10.496
		c0.47,0,0.921,0,1.4-0.046c12.178-0.82,21.386-11.357,20.567-23.535c-0.287-4.259-1.801-8.344-4.359-11.762H-1079.097z"/>
	<g>
		<path style="opacity:0.2;enable-background:new    ;" d="M-1084.124,34.524c-0.002,11.001-8.552,20.108-19.532,20.803h-0.764
			c-10.703,0-20.093-7.842-21.265-18.481c-1.385-12.577,8.427-23.219,20.723-23.216c3.656,0.001,7.247,0.963,10.414,2.79l0,0
			c2.418,1.407,4.529,3.286,6.207,5.525l0,0C-1085.596,25.563-1084.114,29.982-1084.124,34.524z"/>
		<path style="opacity:0.1;enable-background:new    ;" d="M-1110.111,20.64c-1.077,0.459-2.115,1.004-3.103,1.63
			c-0.659,0.368-1.228,0.877-1.667,1.492c-0.418,0.647-0.418,1.48,0,2.127c0.618,0.611,1.473,0.92,2.339,0.847
			c0.905,0.117,1.825,0.025,2.689-0.267c0.586-0.289,1.118-0.675,1.575-1.142l1.786-1.621c0.626-0.571,1.308-1.344,1.031-2.136
			c-0.287-0.59-0.865-0.983-1.519-1.031c-1.541-0.302-3.14-0.02-4.485,0.792"/>
		<g style="opacity:0.1;">
			<circle cx="-1117.597" cy="42.088" r="1.096"/>
		</g>
		<g style="opacity:0.1;">
			<circle cx="-1095.285" cy="35.144" r="4.024"/>
		</g>
		<g style="opacity:0.1;">
			<path d="M-1088.332,21.303L-1088.332,21.303c-0.024,3.051-2.517,5.506-5.568,5.482c-3.051-0.024-5.506-2.517-5.482-5.568
				c0.022-2.768,2.088-5.092,4.834-5.439l0,0C-1092.126,17.184-1090.013,19.063-1088.332,21.303z"/>
		</g>
		<g style="opacity:0.1;">
			<path d="M-1087.595,45.863c-3.633,5.171-9.421,8.411-15.729,8.804v-0.65c0-3.63,1.825-7.124,5.005-8.874
				c3.589-1.975,7.742-1.563,10.76,0.675L-1087.595,45.863z"/>
		</g>
	</g>
	<g>
		<path style="opacity:0.2;enable-background:new    ;" d="M-528.345,267.859c-0.002,11.001-8.552,20.108-19.532,20.803h-0.764
			c-10.703,0-20.093-7.842-21.265-18.481c-1.385-12.577,8.427-23.219,20.723-23.216c3.656,0.001,7.247,0.963,10.414,2.79l0,0
			c2.418,1.407,4.529,3.286,6.207,5.525l0,0C-529.817,258.898-528.335,263.317-528.345,267.859z"/>
		<path style="opacity:0.1;enable-background:new    ;" d="M-554.332,253.976c-1.077,0.459-2.115,1.004-3.103,1.63
			c-0.659,0.368-1.228,0.877-1.667,1.492c-0.418,0.647-0.418,1.48,0,2.127c0.618,0.611,1.473,0.92,2.339,0.847
			c0.905,0.117,1.825,0.025,2.689-0.267c0.586-0.289,1.118-0.675,1.575-1.142l1.786-1.621c0.626-0.571,1.308-1.344,1.031-2.136
			c-0.287-0.59-0.865-0.983-1.519-1.031c-1.541-0.302-3.14-0.02-4.485,0.792"/>
		<g style="opacity:0.1;">
			<circle cx="-561.819" cy="275.423" r="1.096"/>
		</g>
		<g style="opacity:0.1;">
			<circle cx="-539.506" cy="268.479" r="4.024"/>
		</g>
		<g style="opacity:0.1;">
			<path d="M-532.553,254.639L-532.553,254.639c-0.024,3.051-2.517,5.506-5.568,5.482s-5.506-2.517-5.482-5.568
				c0.022-2.768,2.088-5.092,4.834-5.439l0,0C-536.348,250.52-534.234,252.399-532.553,254.639z"/>
		</g>
		<g style="opacity:0.1;">
			<path d="M-531.817,279.198c-3.633,5.171-9.421,8.411-15.729,8.804v-0.65c0-3.63,1.825-7.124,5.005-8.874
				c3.589-1.975,7.742-1.563,10.76,0.675L-531.817,279.198z"/>
		</g>
	</g>
	<circle style="fill:#FFFFFF;" cx="-549.329" cy="190.051" r="1.694"/>
	<g id="mars" style="opacity:0.9;">
		<linearGradient id="SVGID_4_" gradientUnits="userSpaceOnUse" x1="-1241.256" y1="224.0965" x2="-1177.6573" y2="348.3007">
			<stop  offset="0.2132" style="stop-color:#754C24"/>
			<stop  offset="0.4214" style="stop-color:#8D643B"/>
			<stop  offset="0.6068" style="stop-color:#A67C52"/>
			<stop  offset="0.8677" style="stop-color:#754C24"/>
		</linearGradient>
		<circle style="fill:url(#SVGID_4_);" cx="-1211.449" cy="282.308" r="77.625"/>
		<g style="opacity:0.8;">
			<defs>
				<circle id="SVGID_5_" style="opacity:0.8;" cx="-1211.449" cy="282.308" r="77.625"/>
			</defs>
			<clipPath id="SVGID_6_">
				<use xlink:href="#SVGID_5_"  style="overflow:visible;"/>
			</clipPath>
			<g style="opacity:0.38;clip-path:url(#SVGID_6_);">
				<path style="fill:#603813;" d="M-1277.416,324.959c0,0,14.217,21.041,35.827,29.572c0,0,17.381-40.092,40.11-46.916
					c0,0,19.886-9.099,41.496-5.687l23.6,2.559c0,0,2.843-11.374,2.843-16.492c0,0-13.364,0.284-17.345-5.402
					c0,0-22.747-13.08-34.69-9.099c0,0-11.374-1.137-39.808,25.022C-1225.381,298.516-1249.551,322.685-1277.416,324.959z"/>
				<g>
					<path style="fill:#603813;" d="M-1256.375,218.616c0,0,11.374-9.668,32.415-13.648c0,0,13.08,6.256,25.022,19.904
						c0,0,16.492,15.923,46.063,6.256c0,0,5.118,5.687,9.099,11.942c0,0-38.67-2.275-61.418,13.648c0,0-33.552,19.904-77.91-5.687
						c0,0,5.687-13.08,13.648-21.61c0,0,32.699,20.188,43.504,9.383C-1225.95,238.804-1209.458,226.862-1256.375,218.616z"/>
					<path style="fill:#603813;" d="M-1289.358,272.072c0,0-2.559,17.914,4.55,36.396c0,0,36.111-4.265,36.111-16.207
						C-1248.698,292.26-1250.119,277.759-1289.358,272.072z"/>
					<path style="fill:#603813;" d="M-1230.784,359.081c0,0,29.572-47.201,85.871-34.121
						C-1144.913,324.959-1171.641,372.729-1230.784,359.081z"/>
				</g>
			</g>
		</g>
	</g>
	<circle style="fill:#FFFFFF;" cx="-557.19" cy="401.343" r="2.624"/>
</g>
<g id="rocket_1_">
	<g id="rocket">
		<g id="f&#x131;re">
			
				<linearGradient id="SVGID_7_" gradientUnits="userSpaceOnUse" x1="-1231.475" y1="818.4313" x2="-1231.475" y2="780.2982" gradientTransform="matrix(1 0 0 -1 229.6451 1319.4722)">
				<stop  offset="0" style="stop-color:#E0E0E0"/>
				<stop  offset="0.31" style="stop-color:#FCCC63"/>
				<stop  offset="0.77" style="stop-color:#F55F44"/>
			</linearGradient>
			<path style="fill:url(#SVGID_7_);" d="M-1001.786,539.174h-0.088c-3.736,0-6.765-3.029-6.765-6.765v-31.368h13.619v31.368
				C-995.02,536.145-998.049,539.174-1001.786,539.174z"/>
			
				<linearGradient id="SVGID_8_" gradientUnits="userSpaceOnUse" x1="-1186.9863" y1="818.4313" x2="-1186.9863" y2="780.2982" gradientTransform="matrix(1 0 0 -1 229.6451 1319.4722)">
				<stop  offset="0" style="stop-color:#E0E0E0"/>
				<stop  offset="0.31" style="stop-color:#FCCC63"/>
				<stop  offset="0.77" style="stop-color:#F55F44"/>
			</linearGradient>
			<path style="fill:url(#SVGID_8_);" d="M-957.291,539.174h-0.1c-3.733,0-6.76-3.026-6.76-6.76v-31.374h13.619v31.374
				C-950.532,536.148-953.558,539.174-957.291,539.174z"/>
			
				<linearGradient id="SVGID_9_" gradientUnits="userSpaceOnUse" x1="-1157.9325" y1="818.4313" x2="-1157.9325" y2="780.2982" gradientTransform="matrix(1 0 0 -1 229.6451 1319.4722)">
				<stop  offset="0" style="stop-color:#E0E0E0"/>
				<stop  offset="0.31" style="stop-color:#FCCC63"/>
				<stop  offset="0.77" style="stop-color:#F55F44"/>
			</linearGradient>
			<path style="fill:url(#SVGID_9_);" d="M-928.243,539.174h-0.106c-3.727,0-6.748-3.021-6.748-6.748v-31.385h13.619v31.368
				C-921.478,536.145-924.507,539.174-928.243,539.174z"/>
			
				<linearGradient id="SVGID_10_" gradientUnits="userSpaceOnUse" x1="-1112.5359" y1="818.4313" x2="-1112.5359" y2="780.2982" gradientTransform="matrix(1 0 0 -1 229.6451 1319.4722)">
				<stop  offset="0" style="stop-color:#E0E0E0"/>
				<stop  offset="0.31" style="stop-color:#FCCC63"/>
				<stop  offset="0.77" style="stop-color:#F55F44"/>
			</linearGradient>
			<path style="fill:url(#SVGID_10_);" d="M-882.847,539.174h-0.088c-3.736,0-6.765-3.029-6.765-6.765v-0.068v-31.3h13.619v31.368
				C-876.081,536.145-879.11,539.174-882.847,539.174z"/>
		</g>
		<g id="rocketup">
			<polygon style="fill:#333333;" points="-995.057,501.041 -1009.266,501.041 -1006.727,483.79 -997.596,483.79 			"/>
			<g style="opacity:0.1;">
				<polygon style="fill:#4D4D4D;" points="-1007.127,491.054 -997.196,491.054 -997.861,486.514 -1006.461,486.514 				"/>
			</g>
			<polygon style="fill:#333333;" points="-875.842,501.041 -890.045,501.041 -887.513,483.79 -878.375,483.79 			"/>
			<g style="opacity:0.1;">
				<polygon style="fill:#4D4D4D;" points="-887.912,491.054 -877.976,491.054 -878.641,486.514 -887.247,486.514 				"/>
			</g>
			<polygon style="fill:#333333;" points="-949.857,501.041 -964.06,501.041 -961.527,483.79 -952.39,483.79 			"/>
			<g style="opacity:0.1;">
				<polygon style="fill:#4D4D4D;" points="-961.927,491.054 -951.99,491.054 -952.656,486.514 -961.261,486.514 				"/>
			</g>
			<polygon style="fill:#333333;" points="-921.541,501.041 -935.744,501.041 -933.211,483.79 -924.08,483.79 			"/>
			<g style="opacity:0.1;">
				<polygon style="fill:#4D4D4D;" points="-933.611,491.054 -923.674,491.054 -924.345,486.514 -932.945,486.514 				"/>
			</g>
			<linearGradient id="SVGID_11_" gradientUnits="userSpaceOnUse" x1="-906.952" y1="384.0996" x2="-863.3696" y2="384.0996">
				<stop  offset="0.0337" style="stop-color:#A7A9AC"/>
				<stop  offset="0.2325" style="stop-color:#B6B8BA"/>
				<stop  offset="0.382" style="stop-color:#C4C6C8"/>
				<stop  offset="0.5744" style="stop-color:#B5B7BA"/>
				<stop  offset="0.7191" style="stop-color:#A7A9AC"/>
				<stop  offset="1" style="stop-color:#D1D3D4"/>
				<stop  offset="1" style="stop-color:#A7A9AC"/>
			</linearGradient>
			<path style="fill:url(#SVGID_11_);" d="M-880.901,281.711c-2.057-2.292-5.566-2.468-7.838-0.393
				c-0.136,0.125-0.266,0.256-0.39,0.393c-2.865,3.084-5.456,7.158-7.717,11.491c-6.705,13.038-10.173,27.522-10.105,42.21V488.33
				h43.581V334.767c0.055-14.281-3.245-28.373-9.628-41.12C-876.026,287.69-878.78,283.962-880.901,281.711z"/>
			<linearGradient id="SVGID_12_" gradientUnits="userSpaceOnUse" x1="-1024.075" y1="384.0995" x2="-980.4926" y2="384.0995">
				<stop  offset="0.0337" style="stop-color:#A7A9AC"/>
				<stop  offset="0.2325" style="stop-color:#B6B8BA"/>
				<stop  offset="0.382" style="stop-color:#C4C6C8"/>
				<stop  offset="0.5744" style="stop-color:#B5B7BA"/>
				<stop  offset="0.7191" style="stop-color:#A7A9AC"/>
				<stop  offset="1" style="stop-color:#D1D3D4"/>
				<stop  offset="1" style="stop-color:#A7A9AC"/>
			</linearGradient>
			<path style="fill:url(#SVGID_12_);" d="M-1006.549,281.711c2.057-2.292,5.566-2.468,7.838-0.393
				c0.136,0.125,0.266,0.256,0.39,0.393c2.87,3.084,5.456,7.158,7.722,11.491c6.702,13.039,10.17,27.523,10.105,42.21V488.33
				h-43.581V334.767c-0.055-14.281,3.245-28.373,9.628-41.12C-1011.424,287.69-1008.67,283.962-1006.549,281.711z"/>
			<rect x="-994.913" y="344.877" style="fill:#333333;" width="102.346" height="3.632"/>
			<g>
				<path style="opacity:0.3;fill:#E6E6E6;" d="M-989.803,293.213c-2.088-4.332-4.47-8.407-7.115-11.491
					c-1.535-1.864-4.017-2.375-6.065-1.249c0.574,0.314,1.092,0.736,1.531,1.249c2.639,3.084,5.027,7.158,7.109,11.491
					c6.178,13.037,9.372,27.522,9.31,42.21V488.33h4.54V335.429C-980.433,320.74-983.627,306.253-989.803,293.213z"/>
			</g>
			<polygon style="fill:#333333;" points="-1024.074,338.521 -1014.087,338.573 -1014.087,351.232 -1024.074,351.232 			"/>
			<polygon style="fill:#333333;" points="-990.481,338.521 -980.493,338.573 -980.493,351.232 -990.481,351.232 			"/>
			<polygon style="fill:#333333;" points="-873.357,338.521 -863.37,338.573 -863.37,351.232 -873.357,351.232 			"/>
			<g>
				<path style="opacity:0.3;fill:#E6E6E6;" d="M-892.065,293.19c2.314-4.332,4.968-8.407,7.901-11.491
					c0.548-0.584,1.213-1.051,1.952-1.372c-2.236-0.964-4.848-0.412-6.485,1.372c-2.939,3.084-5.593,7.158-7.907,11.491
					c-6.863,13.038-10.413,27.523-10.347,42.21v152.93h4.54V335.412C-902.483,320.72-898.932,306.231-892.065,293.19z"/>
			</g>
			<linearGradient id="SVGID_13_" gradientUnits="userSpaceOnUse" x1="-975.9539" y1="323.0929" x2="-913.3065" y2="323.0929">
				<stop  offset="0.0337" style="stop-color:#A7A9AC"/>
				<stop  offset="0.2325" style="stop-color:#B6B8BA"/>
				<stop  offset="0.382" style="stop-color:#C4C6C8"/>
				<stop  offset="0.5744" style="stop-color:#B5B7BA"/>
				<stop  offset="0.7191" style="stop-color:#A7A9AC"/>
				<stop  offset="1" style="stop-color:#D1D3D4"/>
				<stop  offset="1" style="stop-color:#A7A9AC"/>
			</linearGradient>
			<path style="fill:url(#SVGID_13_);" d="M-938.465,161.524c-2.746-3.272-7.621-3.695-10.889-0.945
				c-0.341,0.287-0.657,0.603-0.944,0.945c-4.098,4.62-7.846,10.723-11.124,17.218c-9.637,19.253-14.532,41.108-14.532,63.268
				v245.411h62.647V241.026c0-21.533-4.684-42.796-13.841-61.615C-931.451,170.482-935.415,164.93-938.465,161.524z"/>
			<path style="opacity:0.21;fill:#F2F2F2;" d="M-954.07,188.712h19.788c3.562,0,6.449,2.887,6.449,6.449v2.537
				c0,3.562-2.887,6.449-6.449,6.449h-19.788c-3.562,0-6.449-2.887-6.449-6.449v-2.537
				C-960.519,191.599-957.632,188.712-954.07,188.712z"/>
			<g style="opacity:0.1;">
				<rect x="-975.046" y="250.452" width="61.739" height="2.724"/>
			</g>
			<polygon style="fill:#333333;" points="-906.951,338.521 -896.964,338.573 -896.964,351.232 -906.951,351.232 			"/>
		</g>
	</g>
	
		<text transform="matrix(6.123234e-17 -1 1 6.123234e-17 -938.7756 420.8496)" style="fill:#4D4D4D; font-family:'MMTextBook'; font-size:23px; letter-spacing:1;">spaceway</text>
</g>
<g id="f&#x131;recloud">
	<g id="dumanan&#x131;">
		<circle style="opacity:0.6;fill:#E6E6E6;" cx="-1022.673" cy="555.494" r="51.903"/>
		<circle style="opacity:0.6;fill:#E6E6E6;" cx="-876.609" cy="560.087" r="51.903"/>
	</g>
	<path style="fill:#CCCCCC;enable-background:new    ;" d="M-826.436,552.641c-1.663-17.074-7.042-32.454-15.065-43.075
		c-8.023-10.621-18.102-15.701-28.227-14.23c-10.125,1.472-19.552,9.388-26.403,22.17c-6.983,13.028-10.766,30.137-10.554,47.801
		c-0.003,0.004-0.005,0.006-0.008,0.01c-1.495,0.388-2.974,0.924-4.43,1.619c-1.865-12.651-5.992-23.998-11.81-32.474
		c-5.819-8.476-13.041-13.661-20.666-14.837c-7.625-1.175-15.276,1.716-21.894,8.274c-6.617,6.558-11.874,16.459-15.042,28.331
		c-3.265-2.146-6.695-3.48-10.183-3.963c-0.556-5.38-1.49-10.627-2.78-15.628c-0.605-15.781-4.682-30.592-11.416-41.48
		c-6.733-10.887-15.63-17.051-24.914-17.26c-9.285-0.209-18.273,5.551-25.174,16.131c-6.901,10.581-11.206,25.203-12.057,40.951
		c-1.911,6.894-3.132,14.283-3.611,21.863c-8.45,5.988-15.293,17.104-19.205,31.196s-4.611,30.156-1.965,43.08h295.747
		c1.541-6.705,1.957-15.871,1.218-24.878c-0.739-9.001-2.615-17.626-5.499-25.276c-2.884-7.65-6.708-14.143-11.207-19.031
		C-816.08,557.044-821.148,553.874-826.436,552.641z"/>
	
		<linearGradient id="SVGID_14_" gradientUnits="userSpaceOnUse" x1="-1180.8795" y1="-125160.1094" x2="-1180.8795" y2="-96894.9531" gradientTransform="matrix(1 0 0 -1 262.0551 1362.3622)">
		<stop  offset="0" style="stop-color:#FCFCFC"/>
		<stop  offset="0.4042" style="stop-color:#FFFFFF;stop-opacity:0.64"/>
	</linearGradient>
	<path style="opacity:0.7;fill:url(#SVGID_14_);enable-background:new    ;" d="M-804.538,553.025
		c-1.617-16.603-6.848-31.558-14.65-41.886s-17.602-15.268-27.448-13.837c-9.845,1.431-19.013,9.128-25.674,21.558
		c-6.79,12.668-10.468,29.305-10.263,46.482c-0.003,0.004-0.005,0.006-0.008,0.01c-1.453,0.377-2.892,0.898-4.308,1.574
		c-1.813-12.301-5.826-23.336-11.484-31.577c-5.658-8.242-12.681-13.284-20.095-14.427c-7.414-1.143-14.855,1.668-21.29,8.045
		c-6.435,6.377-11.546,16.005-14.627,27.549c-3.175-2.086-6.51-3.384-9.902-3.854c-0.541-5.232-1.448-10.333-2.703-15.197
		c-0.589-15.345-4.553-29.748-11.101-40.335c-6.548-10.587-15.198-16.58-24.226-16.784c-9.028-0.203-17.769,5.397-24.479,15.686
		c-6.711,10.289-10.897,24.507-11.724,39.82c-1.858,6.703-3.045,13.889-3.512,21.259c-8.217,5.823-14.871,16.632-18.674,30.334
		c-3.803,13.703-4.484,29.323-1.911,43.835h287.582c1.499-8.464,1.903-17.378,1.184-26.136c-0.718-8.753-2.543-17.139-5.348-24.578
		c-2.805-7.439-6.523-13.753-10.898-18.506C-794.468,557.307-799.396,554.224-804.538,553.025z"/>
</g>
</svg>
