<svg width="592" height="427" viewBox="0 0 592 427" fill="none" xmlns="http://www.w3.org/2000/svg">
<g id="rocket 2">
<rect width="592" height="427" fill="white"/>
<g id="backgroundSpace">
<path id="Vector" d="M466.34 325.549C462.489 325.927 458.614 325.868 454.774 325.373C412.551 320.045 355.055 321.56 308.185 354.706C243.365 400.538 141.78 361.302 96.9687 339.956C62.7296 323.653 44.9548 283.72 55.6316 246.238C55.7822 245.709 55.9363 245.18 56.0991 244.65C62.8175 222.376 76.0789 204.942 92.5011 195.701C106.814 187.647 127.713 170.829 137.012 138.512C140.853 125.169 146.122 112.616 152.966 101.674C171.292 72.3698 209.657 28.7301 275.637 29.0013C287.206 29.0654 298.687 31.2835 309.63 35.5686C333.735 44.9431 355.506 64.0009 372.108 90.4221C382.701 107.274 398.576 122.939 421.303 124.216C452.845 125.998 482.946 142.759 505.527 172.588C506.178 173.446 506.821 174.308 507.464 175.181C547.67 229.849 519.744 320.221 466.34 325.549Z" fill="#6C63FF"/>
<g id="Group" opacity="0.7">
<path id="Vector_2" opacity="0.7" d="M150.83 316.616C154.699 316.616 157.835 313.482 157.835 309.615C157.835 305.748 154.699 302.613 150.83 302.613C146.961 302.613 143.825 305.748 143.825 309.615C143.825 313.482 146.961 316.616 150.83 316.616Z" fill="url(#paint0_linear)"/>
</g>
<path id="Vector_3" d="M188.722 337.865C189.521 337.865 190.168 337.218 190.168 336.419C190.168 335.621 189.521 334.974 188.722 334.974C187.923 334.974 187.275 335.621 187.275 336.419C187.275 337.218 187.923 337.865 188.722 337.865Z" fill="white"/>
<path id="Vector_4" opacity="0.2" d="M186.69 212.374C190.385 212.374 193.38 209.38 193.38 205.687C193.38 201.994 190.385 199 186.69 199C182.995 199 180 201.994 180 205.687C180 209.38 182.995 212.374 186.69 212.374Z" fill="black"/>
<path id="Vector_5" d="M398.588 207.175C400.018 207.175 401.177 206.016 401.177 204.587C401.177 203.158 400.018 202 398.588 202C397.159 202 396 203.158 396 204.587C396 206.016 397.159 207.175 398.588 207.175Z" fill="white"/>
<path id="Vector_6" d="M509.014 267.847C509.813 267.847 510.46 267.2 510.46 266.402C510.46 265.603 509.813 264.956 509.014 264.956C508.215 264.956 507.567 265.603 507.567 266.402C507.567 267.2 508.215 267.847 509.014 267.847Z" fill="white"/>
<path id="Vector_7" d="M426.276 137.961C427.075 137.961 427.722 137.313 427.722 136.515C427.722 135.716 427.075 135.069 426.276 135.069C425.477 135.069 424.83 135.716 424.83 136.515C424.83 137.313 425.477 137.961 426.276 137.961Z" fill="white"/>
<path id="Vector_8" d="M199.131 75.1747C200.56 75.1747 201.719 74.0163 201.719 72.5873C201.719 71.1584 200.56 70 199.131 70C197.701 70 196.542 71.1584 196.542 72.5873C196.542 74.0163 197.701 75.1747 199.131 75.1747Z" fill="white"/>
<path id="Vector_9" d="M117.503 294.358H115.145V292H114.359V294.358H112V295.143H114.359V298.286H115.145V295.143H117.503V294.358Z" fill="white"/>
<path id="Vector_10" d="M347.503 234.358H345.145V232H344.359V234.358H342V235.143H344.359V237.5H345.145V235.143H347.503V234.358Z" fill="white"/>
<path id="Vector_11" d="M315.503 119.358H313.145V117H312.359V119.358H310V120.143H312.359V122.501H313.145V120.143H315.503V119.358Z" fill="white"/>
<path id="Vector_12" d="M343.295 67.9346H342.509V67.149H341.723V67.9346H340.937V68.7203H341.723V69.506H342.509V68.7203H343.295V67.9346Z" fill="white"/>
<path id="Vector_13" d="M459.358 216.786H458.572V216H457.786V216.786H457V217.571H457.786V218.357H458.572V217.571H459.358V216.786Z" fill="white"/>
<path id="Vector_14" d="M88.5945 314.168H87.8085V313.382H87.0224V314.168H86.2364V314.954H87.0224V315.739H87.8085V314.954H88.5945V314.168Z" fill="white"/>
<path id="Vector_15" d="M263.9 65.7862H262.328V65H263.114V65.7862H261.542V66.5719H262.328V67.3576H263.114V66.5719H263.9V65.7862Z" fill="white"/>
<path id="Vector_16" d="M160.131 193.16H159.345V192.374H158.559V193.16H157.773V193.946H158.559V194.731H159.345V193.946H160.131V193.16Z" fill="white"/>
<path id="Vector_17" d="M173.495 149.943H171.923V149.157H172.709V149.943H171.923V150.728V151.514H172.709V150.728H173.495V149.943Z" fill="white"/>
<g id="Group_2" opacity="0.7">
<path id="Vector_18" opacity="0.7" d="M389.749 250.688C392.979 250.688 395.597 248.071 395.597 244.843C395.597 241.616 392.979 238.999 389.749 238.999C386.52 238.999 383.902 241.616 383.902 244.843C383.902 248.071 386.52 250.688 389.749 250.688Z" fill="url(#paint1_linear)"/>
</g>
<path id="Vector_19" opacity="0.2" d="M389.749 250.257C392.741 250.257 395.166 247.833 395.166 244.843C395.166 241.854 392.741 239.43 389.749 239.43C386.758 239.43 384.333 241.854 384.333 244.843C384.333 247.833 386.758 250.257 389.749 250.257Z" fill="black"/>
<g id="moon">
<path id="Vector_20" d="M403.323 109.651C403.32 128.981 388.292 144.981 368.993 146.202C368.236 146.202 367.458 146.28 366.678 146.28C346.433 146.293 330.012 129.898 330 109.662C329.988 89.426 346.39 73.0121 366.635 73C373.085 72.9961 379.423 74.6937 385.006 77.9213C389.251 80.383 392.96 83.6678 395.915 87.5836C400.73 93.9335 403.332 101.684 403.323 109.651Z" fill="#CCCCCC"/>
<g id="Group_3" opacity="0.7">
<path id="Vector_21" opacity="0.1" d="M357.087 86.4882C355.192 87.3031 353.364 88.2656 351.621 89.3665C350.457 90.0023 349.456 90.8982 348.696 91.9852C347.926 93.1042 347.899 94.5753 348.628 95.7213C349.52 96.9406 351.237 97.1208 352.75 97.2112C354.339 97.4134 355.953 97.2514 357.471 96.7373C358.495 96.231 359.427 95.5555 360.226 94.7395L363.377 91.8839C364.506 90.8905 365.635 89.5246 365.195 88.1251C364.666 87.1097 363.659 86.4298 362.519 86.3191C359.803 85.7901 356.987 86.2849 354.614 87.7075" fill="#333333"/>
<g id="Group_4">
<path id="Vector_22" opacity="0.1" d="M343.931 126.12C344.997 126.12 345.862 125.256 345.862 124.19C345.862 123.124 344.997 122.26 343.931 122.26C342.865 122.26 342 123.124 342 124.19C342 125.256 342.865 126.12 343.931 126.12Z" fill="#333333"/>
</g>
<g id="Group_5">
<path id="Vector_23" opacity="0.1" d="M383.139 119.042C387.043 119.042 390.208 115.879 390.208 111.976C390.208 108.073 387.043 104.91 383.139 104.91C379.235 104.91 376.07 108.073 376.07 111.976C376.07 115.879 379.235 119.042 383.139 119.042Z" fill="#333333"/>
</g>
<g id="Group_6">
<path id="Vector_24" opacity="0.1" d="M395.414 87.6623C395.355 92.9858 390.989 97.2536 385.664 97.1941C380.338 97.1346 376.068 92.7709 376.128 87.4474C376.181 82.6579 379.745 78.6342 384.494 78C388.743 80.4601 392.456 83.7455 395.414 87.6623Z" fill="#333333"/>
</g>
<g id="Group_7">
<path id="Vector_25" opacity="0.1" d="M396.069 130.816C389.684 139.901 379.512 145.592 368.424 146.28C368.424 145.772 368.357 145.264 368.357 144.745C368.366 135.157 376.149 127.392 385.742 127.401C389.461 127.404 393.082 128.601 396.069 130.816Z" fill="#333333"/>
</g>
</g>
</g>
<path id="Vector_26" opacity="0.2" d="M404.332 289.005C407.677 289.005 410.388 286.295 410.388 282.952C410.388 279.609 407.677 276.899 404.332 276.899C400.988 276.899 398.277 279.609 398.277 282.952C398.277 286.295 400.988 289.005 404.332 289.005Z" fill="black"/>
<path id="Vector_27" d="M202.681 187.829C201.698 186.53 200.466 185.44 199.056 184.623C192.796 180.951 184.602 183.503 181.658 190.407C180.123 194.006 180.431 198.205 182.51 201.519C184.86 205.264 188.847 207.326 192.965 207.302C193.224 207.302 193.473 207.302 193.737 207.276C200.449 206.824 205.525 201.019 205.073 194.309C204.915 191.963 204.081 189.711 202.671 187.829H202.681V187.829Z" fill="url(#paint2_linear)"/>
<g id="Group_8">
<path id="Vector_28" opacity="0.2" d="M217.523 113.512C217.522 119.573 212.809 124.591 206.757 124.974H206.336C200.436 124.974 195.26 120.653 194.614 114.791C193.851 107.862 199.259 101.998 206.037 102C208.052 102.001 210.032 102.531 211.777 103.537C213.11 104.312 214.274 105.348 215.199 106.581C216.712 108.575 217.529 111.009 217.523 113.512Z" fill="black"/>
<path id="Vector_29" opacity="0.1" d="M203.199 105.862C202.605 106.115 202.033 106.415 201.489 106.76C201.125 106.963 200.812 107.244 200.57 107.582C200.339 107.939 200.339 108.398 200.57 108.754C200.91 109.091 201.382 109.261 201.859 109.221C202.358 109.285 202.865 109.235 203.341 109.074C203.664 108.915 203.957 108.702 204.209 108.445L205.194 107.552C205.539 107.237 205.915 106.811 205.762 106.375C205.604 106.05 205.285 105.833 204.925 105.807C204.075 105.64 203.194 105.796 202.453 106.243" fill="black"/>
<g id="Group_9" opacity="0.1">
<path id="Vector_30" opacity="0.1" d="M199.073 118.283C199.406 118.283 199.677 118.013 199.677 117.679C199.677 117.346 199.406 117.076 199.073 117.076C198.739 117.076 198.468 117.346 198.468 117.679C198.468 118.013 198.739 118.283 199.073 118.283Z" fill="black"/>
</g>
<g id="Group_10" opacity="0.1">
<path id="Vector_31" opacity="0.1" d="M211.371 116.071C212.596 116.071 213.589 115.078 213.589 113.854C213.589 112.629 212.596 111.636 211.371 111.636C210.146 111.636 209.153 112.629 209.153 113.854C209.153 115.078 210.146 116.071 211.371 116.071Z" fill="black"/>
</g>
<g id="Group_11" opacity="0.1">
<path id="Vector_32" opacity="0.1" d="M215.204 106.228C215.19 107.909 213.816 109.261 212.135 109.248C210.453 109.235 209.1 107.861 209.113 106.18C209.125 104.655 210.264 103.375 211.777 103.183C213.112 103.958 214.277 104.993 215.204 106.228Z" fill="black"/>
</g>
<g id="Group_12" opacity="0.1">
<path id="Vector_33" opacity="0.1" d="M215.61 119.759C213.607 122.608 210.417 124.394 206.941 124.61V124.252C206.941 122.252 207.946 120.327 209.699 119.363C211.678 118.274 213.967 118.501 215.63 119.735L215.61 119.759Z" fill="black"/>
</g>
</g>
<g id="Group_13">
<path id="Vector_34" opacity="0.2" d="M506.261 223.064C506.26 229.125 501.547 234.143 495.495 234.526H495.074C489.174 234.526 483.998 230.205 483.352 224.344C482.589 217.414 487.997 211.551 494.775 211.552C496.79 211.553 498.77 212.083 500.515 213.09C501.848 213.865 503.012 214.9 503.937 216.134C505.45 218.127 506.267 220.562 506.261 223.064Z" fill="black"/>
<path id="Vector_35" opacity="0.1" d="M491.937 215.415C491.343 215.668 490.771 215.968 490.226 216.313C489.863 216.516 489.549 216.796 489.307 217.135C489.077 217.492 489.077 217.951 489.307 218.307C489.648 218.644 490.119 218.814 490.597 218.774C491.096 218.838 491.603 218.788 492.079 218.627C492.402 218.468 492.695 218.255 492.947 217.998L493.931 217.104C494.277 216.79 494.652 216.364 494.5 215.928C494.342 215.603 494.023 215.386 493.663 215.36C492.813 215.193 491.932 215.348 491.19 215.796" fill="black"/>
<g id="Group_14" opacity="0.1">
<path id="Vector_36" opacity="0.1" d="M487.81 227.836C488.143 227.836 488.414 227.565 488.414 227.232C488.414 226.898 488.143 226.628 487.81 226.628C487.476 226.628 487.206 226.898 487.206 227.232C487.206 227.565 487.476 227.836 487.81 227.836Z" fill="black"/>
</g>
<g id="Group_15" opacity="0.1">
<path id="Vector_37" opacity="0.1" d="M500.109 225.623C501.334 225.623 502.327 224.63 502.327 223.406C502.327 222.181 501.334 221.189 500.109 221.189C498.884 221.189 497.891 222.181 497.891 223.406C497.891 224.63 498.884 225.623 500.109 225.623Z" fill="black"/>
</g>
<g id="Group_16" opacity="0.1">
<path id="Vector_38" opacity="0.1" d="M503.941 215.78C503.928 217.461 502.554 218.814 500.872 218.801C499.191 218.788 497.837 217.414 497.851 215.733C497.863 214.208 499.002 212.928 500.515 212.736C501.85 213.511 503.015 214.546 503.941 215.78Z" fill="black"/>
</g>
<g id="Group_17" opacity="0.1">
<path id="Vector_39" opacity="0.1" d="M504.347 229.312C502.345 232.161 499.154 233.946 495.677 234.162V233.804C495.677 231.804 496.683 229.879 498.436 228.915C500.414 227.827 502.703 228.054 504.367 229.287L504.347 229.312Z" fill="black"/>
</g>
</g>
<path id="Vector_40" d="M345.934 163.867C346.449 163.867 346.867 163.449 346.867 162.933C346.867 162.418 346.449 162 345.934 162C345.418 162 345 162.418 345 162.933C345 163.449 345.418 163.867 345.934 163.867Z" fill="white"/>
<g id="mars" opacity="0.9">
<path id="Vector_41" opacity="0.9" d="M125.191 276.538C148.822 276.538 167.979 257.389 167.979 233.769C167.979 210.148 148.822 191 125.191 191C101.56 191 82.4037 210.148 82.4037 233.769C82.4037 257.389 101.56 276.538 125.191 276.538Z" fill="url(#paint3_linear)"/>
<g id="Group_18" opacity="0.8">
<g id="Group_19" opacity="0.38">
<path id="Vector_42" opacity="0.38" d="M88.8297 257.268C88.8297 257.268 96.6663 268.861 108.578 273.561C108.578 273.561 118.159 251.472 130.687 247.712C130.687 247.712 141.648 242.699 153.56 244.579L166.569 245.989C166.569 245.989 168.136 239.722 168.136 236.902C168.136 236.902 160.769 237.059 158.575 233.926C158.575 233.926 146.037 226.719 139.453 228.913C139.453 228.913 133.184 228.286 117.511 242.699C117.512 242.699 104.189 256.015 88.8297 257.268Z" fill="#603813"/>
<g id="Group_20" opacity="0.38">
<path id="Vector_43" opacity="0.38" d="M100.428 198.677C100.428 198.677 106.697 193.35 118.295 191.157C118.295 191.157 125.505 194.604 132.088 202.123C132.088 202.123 141.178 210.897 157.478 205.57C157.478 205.57 160.299 208.704 162.493 212.15C162.493 212.15 141.178 210.897 128.639 219.67C128.639 219.67 110.145 230.636 85.6944 216.536C85.6944 216.536 88.8292 209.33 93.2174 204.63C93.2174 204.63 111.241 215.753 117.197 209.8C117.198 209.8 126.289 203.22 100.428 198.677Z" fill="#603813"/>
<path id="Vector_44" opacity="0.38" d="M82.2472 228.129C82.2472 228.129 80.8366 237.999 84.7546 248.182C84.7546 248.182 104.659 245.832 104.659 239.253C104.66 239.252 103.876 231.263 82.2472 228.129Z" fill="#603813"/>
<path id="Vector_45" opacity="0.38" d="M114.534 276.068C114.534 276.068 130.834 250.062 161.867 257.269C161.867 257.268 147.134 283.588 114.534 276.068Z" fill="#603813"/>
</g>
</g>
</g>
</g>
<path id="Vector_46" d="M490.361 298.055C491.16 298.055 491.808 297.408 491.808 296.61C491.808 295.811 491.16 295.164 490.361 295.164C489.562 295.164 488.915 295.811 488.915 296.61C488.915 297.408 489.562 298.055 490.361 298.055Z" fill="white"/>
</g>
<g id="rocket">
<g id="f&#196;&#177;re">
<path id="Vector_47" d="M236.309 369.043H236.26C234.202 369.043 232.533 367.375 232.533 365.318V348.043H240.037V365.318C240.037 367.375 238.368 369.043 236.309 369.043Z" fill="url(#paint4_linear)"/>
<path id="Vector_48" d="M260.81 369.043H260.755C258.698 369.043 257.03 367.377 257.03 365.321V348.043H264.534V365.321C264.534 367.377 262.867 369.043 260.81 369.043Z" fill="url(#paint5_linear)"/>
<path id="Vector_49" d="M276.308 369.043H276.249C274.196 369.043 272.531 367.379 272.531 365.327V348.043H280.035V365.318C280.035 367.375 278.366 369.043 276.308 369.043Z" fill="url(#paint6_linear)"/>
<path id="Vector_50" d="M301.804 369.043H301.756C299.697 369.043 298.028 367.375 298.028 365.318V365.28V348.043H305.532V365.318C305.532 367.375 303.863 369.043 301.804 369.043Z" fill="url(#paint7_linear)"/>
</g>
<g id="rocketup">
<path id="Vector_51" d="M239.995 348.583H232.163L233.562 339.079H238.595L239.995 348.583Z" fill="#333333"/>
<g id="Group_21" opacity="0.1">
<path id="Vector_52" opacity="0.1" d="M233.342 343.081H238.816L238.449 340.58H233.709L233.342 343.081Z" fill="#4D4D4D"/>
</g>
<path id="Vector_53" d="M305.707 348.583H297.879L299.274 339.079H304.311L305.707 348.583Z" fill="#333333"/>
<g id="Group_22" opacity="0.1">
<path id="Vector_54" opacity="0.1" d="M299.054 343.081H304.531L304.165 340.58H299.421L299.054 343.081Z" fill="#4D4D4D"/>
</g>
<path id="Vector_55" d="M264.91 348.583H257.081L258.477 339.079H263.513L264.91 348.583Z" fill="#333333"/>
<g id="Group_23" opacity="0.1">
<path id="Vector_56" opacity="0.1" d="M258.256 343.081H263.734L263.367 340.58H258.624L258.256 343.081Z" fill="#4D4D4D"/>
</g>
<path id="Vector_57" d="M280.518 348.583H272.689L274.085 339.079H279.118L280.518 348.583Z" fill="#333333"/>
<g id="Group_24" opacity="0.1">
<path id="Vector_58" opacity="0.1" d="M273.865 343.081H279.342L278.972 340.58H274.232L273.865 343.081Z" fill="#4D4D4D"/>
</g>
<path id="Vector_59" d="M302.919 227.74C301.785 226.477 299.851 226.38 298.598 227.523C298.523 227.592 298.452 227.664 298.383 227.74C296.804 229.439 295.376 231.684 294.13 234.071C290.434 241.254 288.522 249.235 288.56 257.327V341.58H312.582V256.972C312.612 249.104 310.793 241.339 307.275 234.316C305.606 231.034 304.088 228.98 302.919 227.74Z" fill="url(#paint8_linear)"/>
<path id="Vector_60" d="M233.66 227.74C234.794 226.477 236.728 226.38 237.981 227.523C238.056 227.592 238.127 227.664 238.196 227.74C239.778 229.439 241.203 231.684 242.453 234.071C246.147 241.255 248.058 249.235 248.023 257.327V341.58H224V256.972C223.97 249.104 225.789 241.339 229.307 234.316C230.973 231.034 232.491 228.98 233.66 227.74Z" fill="url(#paint9_linear)"/>
<path id="Vector_61" d="M296.488 262.542H240.074V264.543H296.488V262.542Z" fill="#333333"/>
<g id="Group_25">
<path id="Vector_62" opacity="0.3" d="M242.891 234.077C241.74 231.69 240.427 229.445 238.969 227.746C238.123 226.719 236.755 226.437 235.626 227.058C235.942 227.231 236.228 227.463 236.47 227.746C237.924 229.445 239.241 231.69 240.388 234.077C243.794 241.26 245.554 249.241 245.52 257.333V341.58H248.023V257.337C248.056 249.243 246.295 241.262 242.891 234.077Z" fill="#E6E6E6"/>
</g>
<path id="Vector_63" d="M224 259.04L229.505 259.069V266.044H224V259.04Z" fill="#333333"/>
<path id="Vector_64" d="M242.517 259.04L248.023 259.069V266.044H242.517V259.04Z" fill="#333333"/>
<path id="Vector_65" d="M307.077 259.04L312.582 259.069V266.044H307.077V259.04Z" fill="#333333"/>
<g id="Group_26">
<path id="Vector_66" opacity="0.3" d="M296.765 234.064C298.041 231.678 299.504 229.432 301.12 227.733C301.422 227.411 301.789 227.154 302.196 226.977C300.964 226.446 299.524 226.75 298.622 227.733C297.002 229.432 295.539 231.677 294.263 234.064C290.48 241.248 288.523 249.229 288.56 257.321V341.58H291.062V257.327C291.023 249.232 292.98 241.249 296.765 234.064Z" fill="#E6E6E6"/>
</g>
<path id="Vector_67" d="M271.189 161.521C269.675 159.718 266.988 159.485 265.187 161C264.999 161.158 264.825 161.332 264.666 161.521C262.408 164.066 260.342 167.429 258.535 171.007C253.223 181.615 250.525 193.656 250.525 205.866V341.079H285.056V205.324C285.056 193.46 282.474 181.744 277.427 171.376C275.055 166.456 272.87 163.397 271.189 161.521Z" fill="url(#paint10_linear)"/>
<path id="Vector_68" opacity="0.21" d="M262.587 176.5H273.495C275.458 176.5 277.049 178.091 277.049 180.053V181.451C277.049 183.414 275.458 185.004 273.495 185.004H262.587C260.624 185.004 259.033 183.414 259.033 181.451V180.053C259.033 178.091 260.624 176.5 262.587 176.5Z" fill="#F2F2F2"/>
<g id="Group_27" opacity="0.1">
<path id="Vector_69" opacity="0.1" d="M285.056 210.517H251.025V212.018H285.056V210.517Z" fill="black"/>
</g>
<path id="Vector_70" d="M288.56 259.04L294.065 259.069V266.044H288.56V259.04Z" fill="#333333"/>
</g>
<path id="spaceway" d="M266.909 308.545C267.143 308.491 267.233 308.311 267.233 308.131C267.233 307.915 267.089 307.699 266.837 307.699C266.369 307.699 264.623 308.473 264.623 310.993C264.623 312.523 265.217 314.017 266.891 314.017C267.989 314.017 268.691 313.135 268.943 312.199C269.177 311.263 269.429 310.507 269.627 309.841C269.933 308.797 270.491 308.329 271.247 308.329C272.417 308.329 272.813 309.625 272.813 310.741C272.813 311.947 272.183 313.117 270.995 313.333C270.707 313.387 270.581 313.585 270.581 313.783C270.581 313.999 270.743 314.233 271.013 314.233C271.625 314.233 273.641 313.405 273.641 310.831C273.641 308.977 272.975 307.357 271.103 307.357C270.041 307.357 269.159 308.167 268.853 309.301C268.655 310.021 268.403 310.741 268.241 311.443C268.007 312.505 267.539 313.009 266.891 313.009C265.991 313.009 265.433 312.145 265.433 311.065C265.433 310.435 265.631 308.941 266.909 308.545ZM276.233 306.061C276.449 306.061 276.575 305.809 276.575 305.557C276.575 305.341 276.467 305.125 276.233 305.125H271.661C272.633 304.495 273.119 303.451 273.119 302.425C273.119 299.833 271.049 298.807 268.925 298.807C266.801 298.807 264.731 299.833 264.731 302.389V302.425C264.731 303.577 265.433 304.693 266.207 305.161H265.127C264.929 305.161 264.821 305.377 264.821 305.611C264.821 305.827 264.929 306.061 265.127 306.061H276.233ZM272.363 302.425C272.363 304.477 270.239 305.197 268.979 305.197C268.709 305.197 265.487 304.999 265.487 302.371C265.487 300.355 267.359 299.671 268.925 299.671C270.509 299.671 272.363 300.373 272.363 302.425ZM272.957 293.275C272.957 295.507 270.959 296.263 269.231 296.263C267.521 296.263 265.523 295.507 265.523 293.275C265.523 291.061 267.521 290.305 269.231 290.305C270.959 290.305 272.957 291.061 272.957 293.275ZM273.299 290.305C273.497 290.305 273.623 290.053 273.623 289.819C273.623 289.585 273.515 289.369 273.299 289.369H265.235C265.001 289.369 264.893 289.621 264.893 289.873C264.893 290.125 265.001 290.377 265.235 290.377H266.225C265.397 290.863 264.713 292.177 264.713 293.275C264.713 296.083 266.927 297.199 269.231 297.199C271.553 297.199 273.767 296.083 273.767 293.275C273.767 291.367 272.525 290.503 272.183 290.305H273.299ZM271.157 279.83C271.103 279.812 271.031 279.794 270.977 279.794C270.743 279.794 270.563 279.992 270.563 280.208C270.563 280.37 270.653 280.55 270.905 280.64C272.039 281.09 272.867 281.936 272.867 283.466C272.867 285.68 270.923 286.49 269.195 286.49C267.485 286.49 265.541 285.68 265.541 283.466C265.541 281.954 266.369 281.126 267.449 280.712C267.719 280.604 267.827 280.424 267.827 280.262C267.827 280.028 267.611 279.812 267.359 279.812C267.305 279.812 264.713 280.37 264.713 283.466C264.713 286.238 266.891 287.444 269.195 287.444C271.499 287.444 273.677 286.238 273.677 283.466C273.677 281.378 272.669 280.442 271.157 279.83ZM268.619 277.278C266.981 277.08 265.469 276.09 265.469 274.236C265.469 272.346 267.035 271.356 268.619 271.212V277.278ZM269.429 270.654C269.429 270.384 269.231 270.222 268.961 270.222C266.837 270.312 264.641 271.482 264.641 274.236C264.641 276.954 266.927 278.268 269.177 278.268C271.445 278.268 273.713 276.936 273.713 274.146C273.713 270.996 270.923 270.402 270.869 270.402C270.617 270.402 270.419 270.654 270.419 270.906C270.419 271.068 270.509 271.23 270.743 271.302C271.931 271.68 272.885 272.616 272.885 274.146C272.885 276.216 271.139 277.224 269.429 277.314V270.654ZM272.273 259.683C272.273 259.683 265.793 262.023 265.073 262.275C264.821 262.365 264.695 262.617 264.695 262.869C264.695 263.121 264.821 263.355 265.091 263.445C266.135 263.769 272.291 265.731 272.291 265.731L264.947 268.395C264.749 268.467 264.677 268.629 264.677 268.791C264.677 269.061 264.857 269.349 265.091 269.349C265.127 269.349 265.163 269.349 265.199 269.331L273.407 266.289C273.677 266.199 273.803 265.947 273.803 265.713C273.803 265.461 273.677 265.209 273.389 265.137L265.973 262.833C265.973 262.833 272.345 260.601 273.407 260.259C273.677 260.169 273.803 259.935 273.803 259.683C273.803 259.449 273.677 259.215 273.407 259.125L265.163 256.335C265.127 256.317 265.073 256.317 265.037 256.317C264.803 256.317 264.641 256.569 264.641 256.839C264.641 257.037 264.731 257.235 264.947 257.307L272.273 259.683ZM272.957 251.263C272.957 253.495 270.959 254.251 269.231 254.251C267.521 254.251 265.523 253.495 265.523 251.263C265.523 249.049 267.521 248.293 269.231 248.293C270.959 248.293 272.957 249.049 272.957 251.263ZM273.299 248.293C273.497 248.293 273.623 248.041 273.623 247.807C273.623 247.573 273.515 247.357 273.299 247.357H265.235C265.001 247.357 264.893 247.609 264.893 247.861C264.893 248.113 265.001 248.365 265.235 248.365H266.225C265.397 248.851 264.713 250.165 264.713 251.263C264.713 254.071 266.927 255.187 269.231 255.187C271.553 255.187 273.767 254.071 273.767 251.263C273.767 249.355 272.525 248.491 272.183 248.293H273.299ZM275.891 244.082C275.945 244.1 275.999 244.118 276.053 244.118C276.323 244.118 276.503 243.866 276.503 243.632C276.503 243.47 276.431 243.326 276.251 243.254L265.289 238.754C265.235 238.736 265.163 238.718 265.109 238.718C264.857 238.718 264.677 238.952 264.677 239.186C264.677 239.348 264.767 239.51 264.983 239.6L271.607 242.318L265.037 245.162C264.839 245.252 264.749 245.414 264.749 245.594C264.749 245.846 264.911 246.098 265.181 246.098C265.235 246.098 265.307 246.08 265.379 246.044L272.723 242.804L275.891 244.082Z" fill="#4D4D4D"/>
</g>
<g id="f&#196;&#177;recloud">
<g id="dumanan&#196;&#177;">
<path id="Vector_71" opacity="0.6" d="M224.689 413.352C241.176 413.352 254.542 400.549 254.542 384.755C254.542 368.962 241.176 356.159 224.689 356.159C208.202 356.159 194.837 368.962 194.837 384.755C194.837 400.549 208.202 413.352 224.689 413.352Z" fill="#E6E6E6"/>
<path id="Vector_72" opacity="0.6" d="M308.699 415.883C325.186 415.883 338.551 403.08 338.551 387.286C338.551 371.492 325.186 358.689 308.699 358.689C292.212 358.689 278.847 371.492 278.847 387.286C278.847 403.08 292.212 415.883 308.699 415.883Z" fill="#E6E6E6"/>
</g>
<path id="Vector_73" d="M337.556 383.183C336.6 373.776 333.506 365.302 328.892 359.451C324.277 353.599 318.48 350.8 312.657 351.61C306.833 352.421 301.411 356.783 297.471 363.825C293.455 371.003 291.279 380.43 291.401 390.162C291.399 390.164 291.398 390.165 291.396 390.168C290.536 390.381 289.686 390.677 288.848 391.06C287.775 384.089 285.402 377.837 282.056 373.167C278.709 368.497 274.555 365.641 270.169 364.993C265.784 364.345 261.383 365.938 257.577 369.551C253.771 373.165 250.747 378.62 248.925 385.161C247.047 383.979 245.075 383.244 243.069 382.977C242.749 380.013 242.212 377.122 241.47 374.367C241.122 365.672 238.777 357.512 234.904 351.513C231.031 345.514 225.914 342.118 220.574 342.003C215.234 341.888 210.064 345.061 206.095 350.891C202.126 356.721 199.65 364.777 199.161 373.453C198.061 377.252 197.359 381.323 197.084 385.499C192.224 388.798 188.288 394.923 186.038 402.687C183.788 410.451 183.386 419.302 184.908 426.423H355.008C355.895 422.729 356.134 417.678 355.709 412.716C355.284 407.757 354.205 403.005 352.546 398.79C350.887 394.575 348.688 390.997 346.1 388.304C343.513 385.609 340.598 383.863 337.556 383.183Z" fill="#CCCCCC"/>
<path id="Vector_74" opacity="0.7" d="M350.151 383.395C349.221 374.247 346.212 366.008 341.725 360.317C337.238 354.627 331.601 351.905 325.938 352.693C320.276 353.482 315.003 357.723 311.172 364.571C307.266 371.551 305.151 380.717 305.269 390.181C305.267 390.184 305.266 390.185 305.264 390.187C304.428 390.395 303.601 390.682 302.786 391.054C301.744 384.277 299.436 378.197 296.181 373.656C292.927 369.115 288.888 366.337 284.624 365.707C280.359 365.078 276.08 366.626 272.378 370.14C268.678 373.653 265.738 378.958 263.966 385.318C262.14 384.169 260.221 383.454 258.271 383.195C257.959 380.312 257.438 377.502 256.716 374.822C256.377 366.367 254.097 358.432 250.331 352.599C246.565 346.766 241.59 343.464 236.397 343.351C231.205 343.239 226.177 346.325 222.318 351.994C218.458 357.663 216.051 365.496 215.575 373.933C214.506 377.626 213.824 381.586 213.555 385.646C208.829 388.855 205.002 394.81 202.815 402.359C200.627 409.909 200.236 418.515 201.715 426.511H367.12C367.982 421.848 368.214 416.936 367.801 412.111C367.388 407.288 366.338 402.668 364.725 398.569C363.112 394.471 360.973 390.992 358.457 388.373C355.943 385.754 353.109 384.056 350.151 383.395Z" fill="url(#paint11_linear)"/>
</g>
</g>
<defs>
<linearGradient id="paint0_linear" x1="150.83" y1="316.616" x2="150.83" y2="302.613" gradientUnits="userSpaceOnUse">
<stop stop-color="#808080" stop-opacity="0.25"/>
<stop offset="0.54" stop-color="#808080" stop-opacity="0.12"/>
<stop offset="1" stop-color="#808080" stop-opacity="0.1"/>
</linearGradient>
<linearGradient id="paint1_linear" x1="389.749" y1="250.689" x2="389.749" y2="238.999" gradientUnits="userSpaceOnUse">
<stop stop-color="#808080" stop-opacity="0.25"/>
<stop offset="0.54" stop-color="#808080" stop-opacity="0.12"/>
<stop offset="1" stop-color="#808080" stop-opacity="0.1"/>
</linearGradient>
<linearGradient id="paint2_linear" x1="192.897" y1="207.303" x2="192.897" y2="182.995" gradientUnits="userSpaceOnUse">
<stop stop-color="#808080" stop-opacity="0.25"/>
<stop offset="0.54" stop-color="#808080" stop-opacity="0.12"/>
<stop offset="1" stop-color="#808080" stop-opacity="0.1"/>
</linearGradient>
<linearGradient id="paint3_linear" x1="108.761" y1="201.696" x2="143.793" y2="270.141" gradientUnits="userSpaceOnUse">
<stop offset="0.2132" stop-color="#754C24"/>
<stop offset="0.4214" stop-color="#8D643B"/>
<stop offset="0.6068" stop-color="#A67C52"/>
<stop offset="0.8677" stop-color="#754C24"/>
</linearGradient>
<linearGradient id="paint4_linear" x1="236.285" y1="348.043" x2="236.285" y2="369.043" gradientUnits="userSpaceOnUse">
<stop stop-color="#E0E0E0"/>
<stop offset="0.31" stop-color="#FCCC63"/>
<stop offset="0.77" stop-color="#F55F44"/>
</linearGradient>
<linearGradient id="paint5_linear" x1="260.782" y1="348.044" x2="260.782" y2="369.043" gradientUnits="userSpaceOnUse">
<stop stop-color="#E0E0E0"/>
<stop offset="0.31" stop-color="#FCCC63"/>
<stop offset="0.77" stop-color="#F55F44"/>
</linearGradient>
<linearGradient id="paint6_linear" x1="276.283" y1="348.043" x2="276.283" y2="369.043" gradientUnits="userSpaceOnUse">
<stop stop-color="#E0E0E0"/>
<stop offset="0.31" stop-color="#FCCC63"/>
<stop offset="0.77" stop-color="#F55F44"/>
</linearGradient>
<linearGradient id="paint7_linear" x1="301.78" y1="348.043" x2="301.78" y2="369.043" gradientUnits="userSpaceOnUse">
<stop stop-color="#E0E0E0"/>
<stop offset="0.31" stop-color="#FCCC63"/>
<stop offset="0.77" stop-color="#F55F44"/>
</linearGradient>
<linearGradient id="paint8_linear" x1="288.559" y1="284.153" x2="312.582" y2="284.153" gradientUnits="userSpaceOnUse">
<stop offset="0.0337" stop-color="#A7A9AC"/>
<stop offset="0.2325" stop-color="#B6B8BA"/>
<stop offset="0.382" stop-color="#C4C6C8"/>
<stop offset="0.5744" stop-color="#B5B7BA"/>
<stop offset="0.7191" stop-color="#A7A9AC"/>
<stop offset="1" stop-color="#A7A9AC"/>
</linearGradient>
<linearGradient id="paint9_linear" x1="224" y1="284.153" x2="248.023" y2="284.153" gradientUnits="userSpaceOnUse">
<stop offset="0.0337" stop-color="#A7A9AC"/>
<stop offset="0.2325" stop-color="#B6B8BA"/>
<stop offset="0.382" stop-color="#C4C6C8"/>
<stop offset="0.5744" stop-color="#B5B7BA"/>
<stop offset="0.7191" stop-color="#A7A9AC"/>
<stop offset="1" stop-color="#A7A9AC"/>
</linearGradient>
<linearGradient id="paint10_linear" x1="250.525" y1="250.54" x2="285.057" y2="250.54" gradientUnits="userSpaceOnUse">
<stop offset="0.0337" stop-color="#A7A9AC"/>
<stop offset="0.2325" stop-color="#B6B8BA"/>
<stop offset="0.382" stop-color="#C4C6C8"/>
<stop offset="0.5744" stop-color="#B5B7BA"/>
<stop offset="0.7191" stop-color="#A7A9AC"/>
<stop offset="1" stop-color="#A7A9AC"/>
</linearGradient>
<linearGradient id="paint11_linear" x1="284.419" y1="69788.5" x2="284.419" y2="54215.3" gradientUnits="userSpaceOnUse">
<stop stop-color="#FCFCFC"/>
<stop offset="0.4042" stop-color="white" stop-opacity="0.64"/>
</linearGradient>
</defs>
</svg>
