<svg width="592" height="427" viewBox="0 0 592 427" fill="none" xmlns="http://www.w3.org/2000/svg">
<g id="rocket 2">
<rect width="592" height="427" fill="white"/>
<g id="backgroundSpace">
<path id="Vector" d="M43.8163 227.734H43.0302V226.947H42.2437V227.734H41.4576V228.519H42.2437V229.305H43.0302V228.519H43.8163V227.734Z" fill="white"/>
<path id="Vector_2" d="M511.476 322.324C506.794 322.727 502.084 322.664 497.416 322.136C446.087 316.464 376.192 318.078 319.215 353.365C240.416 402.159 116.923 360.387 62.4483 337.662C20.8253 320.305 -0.782723 277.792 12.1966 237.887C12.3796 237.324 12.567 236.761 12.7649 236.198C20.9322 212.483 37.0535 193.924 57.0172 184.085C74.4173 175.511 99.8226 157.606 111.127 123.201C115.797 108.995 122.202 95.6304 130.522 83.9812C152.8 52.7838 199.438 6.32401 279.648 6.61271C293.711 6.68103 307.669 9.04248 320.971 13.6045C350.274 23.5847 376.74 43.8741 396.922 72.0027C409.8 89.9433 429.099 106.621 456.727 107.98C495.071 109.878 531.663 127.722 559.114 159.478C559.906 160.392 560.687 161.31 561.469 162.238C610.345 220.439 576.397 316.652 511.476 322.324Z" fill="#6C63FF"/>
<g id="Group" opacity="0.7">
<path id="Vector_3" opacity="0.7" d="M149.288 316.616C153.156 316.616 156.292 313.482 156.292 309.615C156.292 305.748 153.156 302.613 149.288 302.613C145.419 302.613 142.283 305.748 142.283 309.615C142.283 313.482 145.419 316.616 149.288 316.616Z" fill="url(#paint0_linear)"/>
</g>
<path id="Vector_4" d="M187.179 337.865C187.978 337.865 188.626 337.218 188.626 336.419C188.626 335.621 187.978 334.974 187.179 334.974C186.381 334.974 185.733 335.621 185.733 336.419C185.733 337.218 186.381 337.865 187.179 337.865Z" fill="white"/>
<path id="Vector_5" opacity="0.2" d="M149.288 316.302C152.982 316.302 155.978 313.308 155.978 309.615C155.978 305.921 152.982 302.928 149.288 302.928C145.593 302.928 142.598 305.921 142.598 309.615C142.598 313.308 145.593 316.302 149.288 316.302Z" fill="black"/>
<path id="Vector_6" d="M111.548 175.633C112.977 175.633 114.136 174.475 114.136 173.046C114.136 171.617 112.977 170.458 111.548 170.458C110.118 170.458 108.959 171.617 108.959 173.046C108.959 174.475 110.118 175.633 111.548 175.633Z" fill="white"/>
<path id="Vector_7" d="M507.471 267.847C508.27 267.847 508.918 267.2 508.918 266.402C508.918 265.603 508.27 264.956 507.471 264.956C506.673 264.956 506.025 265.603 506.025 266.402C506.025 267.2 506.673 267.847 507.471 267.847Z" fill="white"/>
<path id="Vector_8" d="M424.734 137.961C425.532 137.961 426.18 137.313 426.18 136.515C426.18 135.716 425.532 135.069 424.734 135.069C423.935 135.069 423.287 135.716 423.287 136.515C423.287 137.313 423.935 137.961 424.734 137.961Z" fill="white"/>
<path id="Vector_9" d="M157.231 90.902C158.661 90.902 159.82 89.7436 159.82 88.3146C159.82 86.8857 158.661 85.7273 157.231 85.7273C155.802 85.7273 154.643 86.8857 154.643 88.3146C154.643 89.7436 155.802 90.902 157.231 90.902Z" fill="white"/>
<path id="Vector_10" d="M86.2661 263.093H83.908V260.736H83.122V263.093H80.7634V263.879H83.122V267.022H83.908V263.879H86.2661V263.093Z" fill="white"/>
<path id="Vector_11" d="M143.653 262.307H141.294V259.95H140.508V262.307H138.149V263.093H140.508V265.45H141.294V263.093H143.653V262.307Z" fill="white"/>
<path id="Vector_12" d="M226.98 309.453H224.622V307.096H223.836V309.453H221.477V310.239H223.836V312.597H224.622V310.239H226.98V309.453Z" fill="white"/>
<path id="Vector_13" d="M341.753 28.9346H340.967V28.149H340.181V28.9346H339.395V29.7203H340.181V30.506H340.967V29.7203H341.753V28.9346Z" fill="white"/>
<path id="Vector_14" d="M491.9 125.584H490.328V124.798H491.114V125.584H488.756V126.369H490.328V127.156H491.114V126.369H491.9V125.584Z" fill="white"/>
<path id="Vector_15" d="M403.069 188.445H402.283V187.66H401.497V188.445H400.711V189.231H401.497V190.017H402.283V189.231H403.069V188.445Z" fill="white"/>
<path id="Vector_16" d="M87.0521 314.168H86.2661V313.382H85.4801V314.168H84.694V314.954H85.4801V315.739H86.2661V314.954H87.0521V314.168Z" fill="white"/>
<path id="Vector_17" d="M222.263 41.5071H220.691V40.7209H221.477V41.5071H219.905V42.2928H220.691V43.0785H221.477V42.2928H222.263V41.5071Z" fill="white"/>
<path id="Vector_18" d="M158.589 193.16H157.802V192.374H157.016V193.16H156.23V193.946H157.016V194.731H157.802V193.946H158.589V193.16Z" fill="white"/>
<path id="Vector_19" d="M171.952 149.943H170.38V149.157H171.166V149.943H170.38V150.728V151.514H171.166V150.728H171.952V149.943Z" fill="white"/>
<g id="Group_2" opacity="0.7">
<path id="Vector_20" opacity="0.7" d="M388.207 250.688C391.436 250.688 394.054 248.071 394.054 244.843C394.054 241.616 391.436 238.999 388.207 238.999C384.978 238.999 382.36 241.616 382.36 244.843C382.36 248.071 384.978 250.688 388.207 250.688Z" fill="url(#paint1_linear)"/>
</g>
<path id="Vector_21" opacity="0.2" d="M388.207 250.257C391.198 250.257 393.623 247.833 393.623 244.843C393.623 241.854 391.198 239.43 388.207 239.43C385.216 239.43 382.791 241.854 382.791 244.843C382.791 247.833 385.216 250.257 388.207 250.257Z" fill="black"/>
<path id="Vector_22" opacity="0.2" d="M402.79 289.005C406.134 289.005 408.845 286.295 408.845 282.952C408.845 279.609 406.134 276.899 402.79 276.899C399.445 276.899 396.734 279.609 396.734 282.952C396.734 286.295 399.445 289.005 402.79 289.005Z" fill="black"/>
<g id="moon">
<path id="Vector_23" d="M412.939 116.703C412.935 136.032 397.907 152.032 378.609 153.253C377.852 153.253 377.073 153.332 376.294 153.332C356.049 153.344 339.628 136.95 339.616 116.714C339.604 96.4778 356.005 80.0639 376.25 80.0518C382.701 80.0479 389.038 81.7454 394.622 84.973C398.866 87.4347 402.575 90.7196 405.531 94.6353C410.346 100.985 412.948 108.736 412.939 116.703Z" fill="#CCCCCC"/>
<g id="Group_3" opacity="0.7">
<path id="Vector_24" opacity="0.1" d="M367.27 93.4618C365.376 94.2767 363.548 95.2392 361.805 96.34C360.641 96.9758 359.639 97.8717 358.88 98.9588C358.11 100.078 358.083 101.549 358.812 102.695C359.704 103.914 361.421 104.094 362.934 104.185C364.523 104.387 366.137 104.225 367.655 103.711C368.679 103.205 369.61 102.529 370.41 101.713L373.561 98.8574C374.69 97.864 375.819 96.4981 375.379 95.0987C374.85 94.0833 373.843 93.4034 372.703 93.2926C369.987 92.7637 367.171 93.2585 364.798 94.6811" fill="#333333"/>
<g id="Group_4" opacity="0.1">
<path id="Vector_25" opacity="0.1" d="M354.115 133.093C355.181 133.093 356.046 132.229 356.046 131.163C356.046 130.097 355.181 129.233 354.115 129.233C353.048 129.233 352.184 130.097 352.184 131.163C352.184 132.229 353.048 133.093 354.115 133.093Z" fill="#333333"/>
</g>
<g id="Group_5" opacity="0.1">
<path id="Vector_26" opacity="0.1" d="M393.323 126.016C397.227 126.016 400.392 122.852 400.392 118.95C400.392 115.047 397.227 111.883 393.323 111.883C389.419 111.883 386.254 115.047 386.254 118.95C386.254 122.852 389.419 126.016 393.323 126.016Z" fill="#333333"/>
</g>
<g id="Group_6" opacity="0.1">
<path id="Vector_27" opacity="0.1" d="M405.598 94.6359C405.539 99.9593 401.173 104.227 395.847 104.168C390.522 104.108 386.252 99.7445 386.311 94.421C386.365 89.6314 389.928 85.6077 394.678 84.9736C398.926 87.4336 402.639 90.719 405.598 94.6359Z" fill="#333333"/>
</g>
<g id="Group_7" opacity="0.1">
<path id="Vector_28" opacity="0.1" d="M406.253 137.789C399.867 146.875 389.695 152.565 378.608 153.254C378.608 152.746 378.54 152.238 378.54 151.719C378.55 142.131 386.333 134.366 395.926 134.375C399.645 134.378 403.266 135.575 406.253 137.789Z" fill="#333333"/>
</g>
</g>
</g>
<path id="Vector_29" d="M201.138 187.829C200.156 186.53 198.924 185.44 197.514 184.623C191.253 180.951 183.059 183.503 180.115 190.407C178.581 194.006 178.888 198.205 180.967 201.519C183.318 205.264 187.305 207.326 191.423 207.302C191.682 207.302 191.93 207.302 192.194 207.276C198.907 206.824 203.983 201.019 203.531 194.309C203.373 191.963 202.538 189.711 201.128 187.829H201.138V187.829Z" fill="url(#paint2_linear)"/>
<g id="Group_8">
<path id="Vector_30" opacity="0.2" d="M198.367 94.5042C198.366 100.565 193.653 105.583 187.601 105.966H187.18C181.28 105.966 176.105 101.645 175.459 95.7835C174.695 88.854 180.104 82.9906 186.881 82.9923C188.897 82.9928 190.876 83.5229 192.622 84.5295C193.954 85.3047 195.118 86.34 196.043 87.5736C197.556 89.567 198.373 92.0017 198.367 94.5042Z" fill="black"/>
<path id="Vector_31" opacity="0.1" d="M184.043 86.8546C183.449 87.1075 182.877 87.4077 182.333 87.7526C181.969 87.9554 181.656 88.2358 181.414 88.5747C181.183 88.9312 181.183 89.3901 181.414 89.7466C181.754 90.0832 182.226 90.2535 182.703 90.2132C183.202 90.2777 183.709 90.227 184.185 90.0661C184.508 89.9069 184.802 89.6942 185.053 89.4369L186.038 88.5438C186.383 88.2292 186.759 87.8033 186.606 87.367C186.448 87.0419 186.129 86.8254 185.769 86.7989C184.92 86.6325 184.038 86.7879 183.297 87.2353" fill="black"/>
<g id="Group_9" opacity="0.1">
<path id="Vector_32" opacity="0.1" d="M179.917 99.2756C180.25 99.2756 180.521 99.0052 180.521 98.6717C180.521 98.3382 180.25 98.0679 179.917 98.0679C179.583 98.0679 179.313 98.3382 179.313 98.6717C179.313 99.0052 179.583 99.2756 179.917 99.2756Z" fill="black"/>
</g>
<g id="Group_10" opacity="0.1">
<path id="Vector_33" opacity="0.1" d="M192.215 97.0629C193.44 97.0629 194.433 96.0703 194.433 94.8458C194.433 93.6213 193.44 92.6287 192.215 92.6287C190.99 92.6287 189.997 93.6213 189.997 94.8458C189.997 96.0703 190.99 97.0629 192.215 97.0629Z" fill="black"/>
</g>
<g id="Group_11" opacity="0.1">
<path id="Vector_34" opacity="0.1" d="M196.048 87.2198C196.035 88.9008 194.661 90.2535 192.979 90.2402C191.297 90.227 189.944 88.8535 189.957 87.1725C189.969 85.6474 191.108 84.3669 192.622 84.1758C193.957 84.9504 195.121 85.9857 196.048 87.2198Z" fill="black"/>
</g>
<g id="Group_12" opacity="0.1">
<path id="Vector_35" opacity="0.1" d="M196.454 100.752C194.452 103.601 191.261 105.386 187.785 105.602V105.244C187.785 103.244 188.791 101.319 190.544 100.355C192.522 99.2668 194.811 99.4938 196.475 100.727L196.454 100.752Z" fill="black"/>
</g>
</g>
<g id="Group_13">
<path id="Vector_36" opacity="0.2" d="M504.719 223.064C504.718 229.125 500.005 234.143 493.952 234.526H493.531C487.632 234.526 482.456 230.205 481.81 224.344C481.046 217.414 486.455 211.551 493.233 211.552C495.248 211.553 497.227 212.083 498.973 213.09C500.306 213.865 501.469 214.9 502.394 216.134C503.907 218.127 504.724 220.562 504.719 223.064Z" fill="black"/>
<path id="Vector_37" opacity="0.1" d="M490.394 215.415C489.801 215.668 489.229 215.968 488.684 216.313C488.321 216.516 488.007 216.796 487.765 217.135C487.535 217.492 487.535 217.951 487.765 218.307C488.106 218.644 488.577 218.814 489.054 218.774C489.553 218.838 490.06 218.788 490.537 218.627C490.86 218.468 491.153 218.255 491.405 217.998L492.389 217.104C492.734 216.79 493.11 216.364 492.957 215.928C492.799 215.603 492.481 215.386 492.12 215.36C491.271 215.193 490.389 215.348 489.648 215.796" fill="black"/>
<g id="Group_14" opacity="0.1">
<path id="Vector_38" opacity="0.1" d="M486.267 227.836C486.601 227.836 486.872 227.565 486.872 227.232C486.872 226.898 486.601 226.628 486.267 226.628C485.934 226.628 485.663 226.898 485.663 227.232C485.663 227.565 485.934 227.836 486.267 227.836Z" fill="black"/>
</g>
<g id="Group_15" opacity="0.1">
<path id="Vector_39" opacity="0.1" d="M498.567 225.623C499.792 225.623 500.785 224.63 500.785 223.406C500.785 222.181 499.792 221.189 498.567 221.189C497.342 221.189 496.348 222.181 496.348 223.406C496.348 224.63 497.342 225.623 498.567 225.623Z" fill="black"/>
</g>
<g id="Group_16" opacity="0.1">
<path id="Vector_40" opacity="0.1" d="M502.399 215.78C502.386 217.461 501.012 218.814 499.33 218.801C497.648 218.788 496.295 217.414 496.308 215.733C496.32 214.208 497.459 212.928 498.973 212.736C500.307 213.511 501.473 214.546 502.399 215.78Z" fill="black"/>
</g>
<g id="Group_17" opacity="0.1">
<path id="Vector_41" opacity="0.1" d="M502.805 229.312C500.802 232.161 497.612 233.946 494.135 234.162V233.804C494.135 231.804 495.141 229.879 496.894 228.915C498.872 227.827 501.161 228.054 502.825 229.287L502.805 229.312Z" fill="black"/>
</g>
</g>
<path id="Vector_42" d="M493.152 181.128C493.668 181.128 494.086 180.71 494.086 180.195C494.086 179.679 493.668 179.261 493.152 179.261C492.636 179.261 492.218 179.679 492.218 180.195C492.218 180.71 492.636 181.128 493.152 181.128Z" fill="white"/>
<g id="mars" opacity="0.9">
<path id="Vector_43" opacity="0.9" d="M128.185 273.794C151.816 273.794 170.972 254.646 170.972 231.025C170.972 207.405 151.816 188.256 128.185 188.256C104.554 188.256 85.3968 207.405 85.3968 231.025C85.3968 254.646 104.554 273.794 128.185 273.794Z" fill="url(#paint3_linear)"/>
<g id="Group_18" opacity="0.8">
<g id="Group_19" opacity="0.38">
<path id="Vector_44" opacity="0.38" d="M91.8228 254.525C91.8228 254.525 99.6594 266.117 111.571 270.818C111.571 270.818 121.152 248.728 133.68 244.969C133.68 244.969 144.641 239.955 156.553 241.835L169.562 243.245C169.562 243.245 171.129 236.978 171.129 234.159C171.129 234.159 163.762 234.315 161.568 231.182C161.568 231.182 149.03 223.976 142.447 226.169C142.447 226.169 136.177 225.542 120.504 239.955C120.505 239.955 107.182 253.272 91.8228 254.525Z" fill="#603813"/>
<g id="Group_20" opacity="0.38">
<path id="Vector_45" opacity="0.38" d="M103.421 195.933C103.421 195.933 109.69 190.606 121.288 188.413C121.288 188.413 128.498 191.86 135.081 199.38C135.081 199.38 144.171 208.153 160.471 202.827C160.471 202.827 163.292 205.96 165.487 209.406C165.487 209.406 144.171 208.153 131.632 216.926C131.632 216.926 113.138 227.892 88.6875 213.793C88.6875 213.793 91.8223 206.586 96.2105 201.886C96.2105 201.886 114.235 213.009 120.19 207.056C120.191 207.056 129.282 200.476 103.421 195.933Z" fill="#603813"/>
<path id="Vector_46" opacity="0.38" d="M85.2403 225.385C85.2403 225.385 83.8297 235.256 87.7477 245.438C87.7477 245.438 107.653 243.089 107.653 236.509C107.653 236.508 106.869 228.519 85.2403 225.385Z" fill="#603813"/>
<path id="Vector_47" opacity="0.38" d="M117.527 273.325C117.527 273.325 133.827 247.318 164.86 254.525C164.86 254.524 150.127 280.844 117.527 273.325Z" fill="#603813"/>
</g>
</g>
</g>
</g>
<path id="Vector_48" d="M488.819 298.055C489.618 298.055 490.265 297.408 490.265 296.61C490.265 295.811 489.618 295.164 488.819 295.164C488.02 295.164 487.373 295.811 487.373 296.61C487.373 297.408 488.02 298.055 488.819 298.055Z" fill="white"/>
</g>
<g id="rocket">
<g id="f&#196;&#177;re">
<path id="Vector_49" d="M244.273 372.55H244.224C242.165 372.55 240.495 370.881 240.495 368.822V351.539H248.002V368.822C248.002 370.881 246.333 372.55 244.273 372.55Z" fill="url(#paint4_linear)"/>
<path id="Vector_50" d="M265.784 372.55H265.728C263.671 372.55 262.002 370.883 262.002 368.826V351.539H269.509V368.826C269.509 370.883 267.841 372.55 265.784 372.55Z" fill="url(#paint5_linear)"/>
<path id="Vector_51" d="M287.287 372.55H287.229C285.174 372.55 283.509 370.885 283.509 368.832V351.539H291.016V368.822C291.016 370.881 289.347 372.55 287.287 372.55Z" fill="url(#paint6_linear)"/>
<path id="Vector_52" d="M308.794 372.55H308.745C306.686 372.55 305.016 370.881 305.016 368.822V368.785V351.539H312.523V368.822C312.523 370.881 310.853 372.55 308.794 372.55Z" fill="url(#paint7_linear)"/>
</g>
<g id="rocketup">
<path id="Vector_53" d="M247.462 351.54H239.63L241.029 342.035H246.063L247.462 351.54Z" fill="#333333"/>
<g id="Group_21" opacity="0.1">
<path id="Vector_54" opacity="0.1" d="M240.809 346.038H246.283L245.916 343.536H241.176L240.809 346.038Z" fill="#4D4D4D"/>
</g>
<path id="Vector_55" d="M313.175 351.54H305.346L306.741 342.035H311.778L313.175 351.54Z" fill="#333333"/>
<g id="Group_22" opacity="0.1">
<path id="Vector_56" opacity="0.1" d="M306.521 346.038H311.998L311.632 343.536H306.888L306.521 346.038Z" fill="#4D4D4D"/>
</g>
<path id="Vector_57" d="M272.377 351.54H264.548L265.944 342.035H270.981L272.377 351.54Z" fill="#333333"/>
<g id="Group_23" opacity="0.1">
<path id="Vector_58" opacity="0.1" d="M265.724 346.038H271.201L270.834 343.536H266.091L265.724 346.038Z" fill="#4D4D4D"/>
</g>
<path id="Vector_59" d="M287.985 351.54H280.156L281.552 342.035H286.585L287.985 351.54Z" fill="#333333"/>
<g id="Group_24" opacity="0.1">
<path id="Vector_60" opacity="0.1" d="M281.332 346.038H286.809L286.439 343.536H281.699L281.332 346.038Z" fill="#4D4D4D"/>
</g>
<path id="Vector_61" d="M310.386 230.696C309.252 229.433 307.318 229.336 306.066 230.48C305.991 230.549 305.919 230.621 305.851 230.696C304.271 232.395 302.843 234.64 301.597 237.027C297.901 244.211 295.99 252.191 296.027 260.284V344.537H320.049V259.928C320.08 252.06 318.261 244.296 314.742 237.273C313.073 233.99 311.555 231.936 310.386 230.696Z" fill="url(#paint8_linear)"/>
<path id="Vector_62" d="M241.128 230.696C242.261 229.433 244.196 229.336 245.448 230.48C245.523 230.549 245.595 230.621 245.663 230.696C247.245 232.395 248.67 234.64 249.92 237.027C253.614 244.211 255.526 252.192 255.49 260.284V344.537H231.468V259.928C231.437 252.06 233.256 244.296 236.775 237.273C238.44 233.99 239.958 231.936 241.128 230.696Z" fill="url(#paint9_linear)"/>
<path id="Vector_63" d="M303.956 265.499H247.541V267.5H303.956V265.499Z" fill="#333333"/>
<g id="Group_25">
<path id="Vector_64" opacity="0.3" d="M250.358 237.033C249.207 234.647 247.894 232.401 246.436 230.702C245.59 229.675 244.222 229.394 243.093 230.014C243.41 230.187 243.695 230.42 243.937 230.702C245.392 232.401 246.708 234.646 247.856 237.033C251.261 244.216 253.022 252.197 252.987 260.29V344.537H255.49V260.293C255.523 252.2 253.762 244.218 250.358 237.033Z" fill="#E6E6E6"/>
</g>
<path id="Vector_65" d="M231.467 261.997L236.972 262.025V269H231.467V261.997Z" fill="#333333"/>
<path id="Vector_66" d="M249.984 261.997L255.49 262.025V269H249.984V261.997Z" fill="#333333"/>
<path id="Vector_67" d="M314.544 261.997L320.049 262.025V269H314.544V261.997Z" fill="#333333"/>
<g id="Group_26">
<path id="Vector_68" opacity="0.3" d="M304.232 237.021C305.508 234.634 306.971 232.389 308.587 230.69C308.89 230.368 309.256 230.111 309.663 229.934C308.431 229.403 306.991 229.707 306.089 230.69C304.469 232.389 303.006 234.633 301.73 237.021C297.947 244.204 295.991 252.185 296.027 260.277V344.537H298.529V260.284C298.49 252.189 300.447 244.206 304.232 237.021Z" fill="#E6E6E6"/>
</g>
<path id="Vector_69" d="M278.656 164.477C277.143 162.674 274.455 162.441 272.654 163.956C272.466 164.115 272.292 164.289 272.134 164.477C269.875 167.023 267.809 170.385 266.002 173.964C260.69 184.571 257.992 196.613 257.992 208.822V344.036H292.523V208.28C292.523 196.416 289.942 184.701 284.894 174.332C282.522 169.413 280.337 166.354 278.656 164.477Z" fill="url(#paint10_linear)"/>
<path id="Vector_70" opacity="0.21" d="M270.055 179.457H280.962C282.925 179.457 284.517 181.047 284.517 183.01V184.408C284.517 186.37 282.925 187.961 280.962 187.961H270.055C268.091 187.961 266.5 186.37 266.5 184.408V183.01C266.5 181.047 268.091 179.457 270.055 179.457Z" fill="#F2F2F2"/>
<g id="Group_27" opacity="0.1">
<path id="Vector_71" opacity="0.1" d="M292.523 213.474H258.492V214.974H292.523V213.474Z" fill="black"/>
</g>
<path id="Vector_72" d="M296.027 261.997L301.532 262.025V269H296.027V261.997Z" fill="#333333"/>
</g>
<path id="spaceway" d="M274.376 311.502C274.61 311.448 274.7 311.268 274.7 311.088C274.7 310.872 274.556 310.656 274.304 310.656C273.836 310.656 272.09 311.43 272.09 313.95C272.09 315.48 272.684 316.974 274.358 316.974C275.456 316.974 276.158 316.092 276.41 315.156C276.644 314.22 276.896 313.464 277.094 312.798C277.4 311.754 277.958 311.286 278.714 311.286C279.884 311.286 280.28 312.582 280.28 313.698C280.28 314.904 279.65 316.074 278.462 316.29C278.174 316.344 278.048 316.542 278.048 316.74C278.048 316.956 278.21 317.19 278.48 317.19C279.092 317.19 281.108 316.362 281.108 313.788C281.108 311.934 280.442 310.314 278.57 310.314C277.508 310.314 276.626 311.124 276.32 312.258C276.122 312.978 275.87 313.698 275.708 314.4C275.474 315.462 275.006 315.966 274.358 315.966C273.458 315.966 272.9 315.102 272.9 314.022C272.9 313.392 273.098 311.898 274.376 311.502ZM283.7 309.017C283.916 309.017 284.042 308.765 284.042 308.513C284.042 308.297 283.934 308.081 283.7 308.081H279.128C280.1 307.451 280.586 306.407 280.586 305.381C280.586 302.789 278.516 301.763 276.392 301.763C274.268 301.763 272.198 302.789 272.198 305.345V305.381C272.198 306.533 272.9 307.649 273.674 308.117H272.594C272.396 308.117 272.288 308.333 272.288 308.567C272.288 308.783 272.396 309.017 272.594 309.017H283.7ZM279.83 305.381C279.83 307.433 277.706 308.153 276.446 308.153C276.176 308.153 272.954 307.955 272.954 305.327C272.954 303.311 274.826 302.627 276.392 302.627C277.976 302.627 279.83 303.329 279.83 305.381ZM280.424 296.231C280.424 298.463 278.426 299.219 276.698 299.219C274.988 299.219 272.99 298.463 272.99 296.231C272.99 294.017 274.988 293.261 276.698 293.261C278.426 293.261 280.424 294.017 280.424 296.231ZM280.766 293.261C280.964 293.261 281.09 293.009 281.09 292.775C281.09 292.541 280.982 292.325 280.766 292.325H272.702C272.468 292.325 272.36 292.577 272.36 292.829C272.36 293.081 272.468 293.333 272.702 293.333H273.692C272.864 293.819 272.18 295.133 272.18 296.231C272.18 299.039 274.394 300.155 276.698 300.155C279.02 300.155 281.234 299.039 281.234 296.231C281.234 294.323 279.992 293.459 279.65 293.261H280.766ZM278.624 282.787C278.57 282.769 278.498 282.751 278.444 282.751C278.21 282.751 278.03 282.949 278.03 283.165C278.03 283.327 278.12 283.507 278.372 283.597C279.506 284.047 280.334 284.893 280.334 286.423C280.334 288.637 278.39 289.447 276.662 289.447C274.952 289.447 273.008 288.637 273.008 286.423C273.008 284.911 273.836 284.083 274.916 283.669C275.186 283.561 275.294 283.381 275.294 283.219C275.294 282.985 275.078 282.769 274.826 282.769C274.772 282.769 272.18 283.327 272.18 286.423C272.18 289.195 274.358 290.401 276.662 290.401C278.966 290.401 281.144 289.195 281.144 286.423C281.144 284.335 280.136 283.399 278.624 282.787ZM276.086 280.235C274.448 280.037 272.936 279.047 272.936 277.193C272.936 275.303 274.502 274.313 276.086 274.169V280.235ZM276.896 273.611C276.896 273.341 276.698 273.179 276.428 273.179C274.304 273.269 272.108 274.439 272.108 277.193C272.108 279.911 274.394 281.225 276.644 281.225C278.912 281.225 281.18 279.893 281.18 277.103C281.18 273.953 278.39 273.359 278.336 273.359C278.084 273.359 277.886 273.611 277.886 273.863C277.886 274.025 277.976 274.187 278.21 274.259C279.398 274.637 280.352 275.573 280.352 277.103C280.352 279.173 278.606 280.181 276.896 280.271V273.611ZM279.74 262.639C279.74 262.639 273.26 264.979 272.54 265.231C272.288 265.321 272.162 265.573 272.162 265.825C272.162 266.077 272.288 266.311 272.558 266.401C273.602 266.725 279.758 268.687 279.758 268.687L272.414 271.351C272.216 271.423 272.144 271.585 272.144 271.747C272.144 272.017 272.324 272.305 272.558 272.305C272.594 272.305 272.63 272.305 272.666 272.287L280.874 269.245C281.144 269.155 281.27 268.903 281.27 268.669C281.27 268.417 281.144 268.165 280.856 268.093L273.44 265.789C273.44 265.789 279.812 263.557 280.874 263.215C281.144 263.125 281.27 262.891 281.27 262.639C281.27 262.405 281.144 262.171 280.874 262.081L272.63 259.291C272.594 259.273 272.54 259.273 272.504 259.273C272.27 259.273 272.108 259.525 272.108 259.795C272.108 259.993 272.198 260.191 272.414 260.263L279.74 262.639ZM280.424 254.219C280.424 256.451 278.426 257.207 276.698 257.207C274.988 257.207 272.99 256.451 272.99 254.219C272.99 252.005 274.988 251.249 276.698 251.249C278.426 251.249 280.424 252.005 280.424 254.219ZM280.766 251.249C280.964 251.249 281.09 250.997 281.09 250.763C281.09 250.529 280.982 250.313 280.766 250.313H272.702C272.468 250.313 272.36 250.565 272.36 250.817C272.36 251.069 272.468 251.321 272.702 251.321H273.692C272.864 251.807 272.18 253.121 272.18 254.219C272.18 257.027 274.394 258.143 276.698 258.143C279.02 258.143 281.234 257.027 281.234 254.219C281.234 252.311 279.992 251.447 279.65 251.249H280.766ZM283.358 247.039C283.412 247.057 283.466 247.075 283.52 247.075C283.79 247.075 283.97 246.823 283.97 246.589C283.97 246.427 283.898 246.283 283.718 246.211L272.756 241.711C272.702 241.693 272.63 241.675 272.576 241.675C272.324 241.675 272.144 241.909 272.144 242.143C272.144 242.305 272.234 242.467 272.45 242.557L279.074 245.275L272.504 248.119C272.306 248.209 272.216 248.371 272.216 248.551C272.216 248.803 272.378 249.055 272.648 249.055C272.702 249.055 272.774 249.037 272.846 249.001L280.19 245.761L283.358 247.039Z" fill="#4D4D4D"/>
</g>
<g id="f&#196;&#177;recloud">
<g id="dumanan&#196;&#177;">
<path id="Vector_73" opacity="0.6" d="M232.24 410.139C248.04 410.139 260.849 397.335 260.849 381.542C260.849 365.748 248.04 352.945 232.24 352.945C216.439 352.945 203.63 365.748 203.63 381.542C203.63 397.335 216.439 410.139 232.24 410.139Z" fill="#E6E6E6"/>
<path id="Vector_74" opacity="0.6" d="M312.752 412.669C328.552 412.669 341.361 399.866 341.361 384.072C341.361 368.279 328.552 355.476 312.752 355.476C296.951 355.476 284.142 368.279 284.142 384.072C284.142 399.866 296.951 412.669 312.752 412.669Z" fill="#E6E6E6"/>
</g>
<path id="Vector_75" d="M340.408 379.97C339.491 370.563 336.526 362.089 332.104 356.237C327.681 350.385 322.126 347.586 316.545 348.397C310.964 349.208 305.767 353.569 301.991 360.612C298.142 367.79 296.057 377.216 296.174 386.949C296.172 386.951 296.171 386.952 296.169 386.954C295.345 387.168 294.53 387.463 293.727 387.846C292.699 380.876 290.425 374.624 287.218 369.954C284.01 365.284 280.029 362.427 275.826 361.779C271.623 361.132 267.406 362.725 263.758 366.338C260.111 369.951 257.213 375.406 255.467 381.947C253.667 380.765 251.776 380.03 249.854 379.764C249.547 376.8 249.032 373.909 248.321 371.153C247.988 362.459 245.741 354.298 242.029 348.299C238.317 342.3 233.413 338.905 228.296 338.789C223.178 338.674 218.224 341.848 214.42 347.677C210.616 353.507 208.243 361.563 207.774 370.24C206.72 374.038 206.047 378.109 205.783 382.286C201.126 385.585 197.354 391.709 195.197 399.474C193.041 407.238 192.656 416.089 194.114 423.209H357.133C357.983 419.515 358.212 414.465 357.804 409.502C357.397 404.543 356.363 399.791 354.773 395.576C353.184 391.361 351.076 387.784 348.596 385.091C346.116 382.396 343.323 380.649 340.408 379.97Z" fill="#CCCCCC"/>
<path id="Vector_76" opacity="0.7" d="M352.478 380.182C351.587 371.034 348.703 362.794 344.403 357.104C340.102 351.413 334.701 348.692 329.273 349.48C323.847 350.268 318.793 354.509 315.122 361.358C311.379 368.337 309.351 377.504 309.464 386.968C309.463 386.97 309.462 386.971 309.46 386.973C308.659 387.181 307.866 387.468 307.085 387.841C306.086 381.063 303.874 374.983 300.755 370.443C297.637 365.902 293.765 363.124 289.679 362.494C285.592 361.864 281.49 363.413 277.943 366.926C274.397 370.44 271.579 375.745 269.881 382.105C268.131 380.956 266.293 380.24 264.423 379.982C264.125 377.099 263.625 374.288 262.933 371.608C262.608 363.154 260.423 355.218 256.814 349.385C253.205 343.552 248.437 340.25 243.46 340.138C238.484 340.026 233.666 343.111 229.967 348.78C226.268 354.449 223.961 362.283 223.505 370.72C222.481 374.413 221.826 378.372 221.569 382.433C217.04 385.641 213.372 391.596 211.276 399.146C209.179 406.695 208.804 415.302 210.222 423.298H368.741C369.567 418.634 369.789 413.723 369.393 408.897C368.997 404.075 367.991 399.454 366.445 395.356C364.899 391.257 362.85 387.778 360.438 385.16C358.029 382.541 355.312 380.842 352.478 380.182Z" fill="url(#paint11_linear)"/>
</g>
</g>
<defs>
<linearGradient id="paint0_linear" x1="149.287" y1="316.616" x2="149.287" y2="302.613" gradientUnits="userSpaceOnUse">
<stop stop-color="#808080" stop-opacity="0.25"/>
<stop offset="0.54" stop-color="#808080" stop-opacity="0.12"/>
<stop offset="1" stop-color="#808080" stop-opacity="0.1"/>
</linearGradient>
<linearGradient id="paint1_linear" x1="388.207" y1="250.689" x2="388.207" y2="238.999" gradientUnits="userSpaceOnUse">
<stop stop-color="#808080" stop-opacity="0.25"/>
<stop offset="0.54" stop-color="#808080" stop-opacity="0.12"/>
<stop offset="1" stop-color="#808080" stop-opacity="0.1"/>
</linearGradient>
<linearGradient id="paint2_linear" x1="191.355" y1="207.303" x2="191.355" y2="182.995" gradientUnits="userSpaceOnUse">
<stop stop-color="#808080" stop-opacity="0.25"/>
<stop offset="0.54" stop-color="#808080" stop-opacity="0.12"/>
<stop offset="1" stop-color="#808080" stop-opacity="0.1"/>
</linearGradient>
<linearGradient id="paint3_linear" x1="111.755" y1="198.952" x2="146.786" y2="267.398" gradientUnits="userSpaceOnUse">
<stop offset="0.2132" stop-color="#754C24"/>
<stop offset="0.4214" stop-color="#8D643B"/>
<stop offset="0.6068" stop-color="#A67C52"/>
<stop offset="0.8677" stop-color="#754C24"/>
</linearGradient>
<linearGradient id="paint4_linear" x1="244.249" y1="351.539" x2="244.249" y2="372.55" gradientUnits="userSpaceOnUse">
<stop stop-color="#E0E0E0"/>
<stop offset="0.31" stop-color="#FCCC63"/>
<stop offset="0.77" stop-color="#F55F44"/>
</linearGradient>
<linearGradient id="paint5_linear" x1="265.756" y1="351.54" x2="265.756" y2="372.55" gradientUnits="userSpaceOnUse">
<stop stop-color="#E0E0E0"/>
<stop offset="0.31" stop-color="#FCCC63"/>
<stop offset="0.77" stop-color="#F55F44"/>
</linearGradient>
<linearGradient id="paint6_linear" x1="287.263" y1="351.539" x2="287.263" y2="372.55" gradientUnits="userSpaceOnUse">
<stop stop-color="#E0E0E0"/>
<stop offset="0.31" stop-color="#FCCC63"/>
<stop offset="0.77" stop-color="#F55F44"/>
</linearGradient>
<linearGradient id="paint7_linear" x1="308.769" y1="351.539" x2="308.769" y2="372.55" gradientUnits="userSpaceOnUse">
<stop stop-color="#E0E0E0"/>
<stop offset="0.31" stop-color="#FCCC63"/>
<stop offset="0.77" stop-color="#F55F44"/>
</linearGradient>
<linearGradient id="paint8_linear" x1="296.026" y1="287.109" x2="320.049" y2="287.109" gradientUnits="userSpaceOnUse">
<stop offset="0.0337" stop-color="#A7A9AC"/>
<stop offset="0.2325" stop-color="#B6B8BA"/>
<stop offset="0.382" stop-color="#C4C6C8"/>
<stop offset="0.5744" stop-color="#B5B7BA"/>
<stop offset="0.7191" stop-color="#A7A9AC"/>
<stop offset="1" stop-color="#A7A9AC"/>
</linearGradient>
<linearGradient id="paint9_linear" x1="231.467" y1="287.109" x2="255.49" y2="287.109" gradientUnits="userSpaceOnUse">
<stop offset="0.0337" stop-color="#A7A9AC"/>
<stop offset="0.2325" stop-color="#B6B8BA"/>
<stop offset="0.382" stop-color="#C4C6C8"/>
<stop offset="0.5744" stop-color="#B5B7BA"/>
<stop offset="0.7191" stop-color="#A7A9AC"/>
<stop offset="1" stop-color="#A7A9AC"/>
</linearGradient>
<linearGradient id="paint10_linear" x1="257.992" y1="253.496" x2="292.524" y2="253.496" gradientUnits="userSpaceOnUse">
<stop offset="0.0337" stop-color="#A7A9AC"/>
<stop offset="0.2325" stop-color="#B6B8BA"/>
<stop offset="0.382" stop-color="#C4C6C8"/>
<stop offset="0.5744" stop-color="#B5B7BA"/>
<stop offset="0.7191" stop-color="#A7A9AC"/>
<stop offset="1" stop-color="#A7A9AC"/>
</linearGradient>
<linearGradient id="paint11_linear" x1="289.482" y1="69785.3" x2="289.482" y2="54212.1" gradientUnits="userSpaceOnUse">
<stop stop-color="#FCFCFC"/>
<stop offset="0.4042" stop-color="white" stop-opacity="0.64"/>
</linearGradient>
</defs>
</svg>
