<svg width="1117" height="718" viewBox="0 0 1117 718" fill="none" xmlns="http://www.w3.org/2000/svg">
<rect width="1117" height="718" fill="white"/>
<path d="M819.418 532.927C812.406 533.53 805.352 533.435 798.359 532.646C721.483 524.149 616.797 526.565 531.46 579.425C413.439 652.517 228.479 589.944 146.889 555.902C84.5487 529.902 52.1851 466.22 71.6246 406.444C71.8983 405.6 72.1795 404.756 72.476 403.913C84.7084 368.389 108.854 340.588 138.754 325.851C164.816 313.006 202.866 286.185 219.797 234.648C226.791 213.367 236.385 193.348 248.846 175.898C282.213 129.164 352.064 59.5688 472.198 60.002C493.261 60.104 514.167 63.6416 534.09 70.4751C577.979 85.4248 617.618 115.818 647.846 157.954C667.133 184.828 696.038 209.81 737.418 211.847C794.847 214.69 849.653 241.42 890.767 288.99C891.953 290.358 893.124 291.733 894.295 293.124C967.499 380.306 916.654 524.43 819.418 532.927Z" fill="#6C63FF"/>
<g opacity="0.7">
<path opacity="0.7" d="M276.952 524.377C282.746 524.377 287.443 519.681 287.443 513.888C287.443 508.096 282.746 503.4 276.952 503.4C271.158 503.4 266.46 508.096 266.46 513.888C266.46 519.681 271.158 524.377 276.952 524.377Z" fill="url(#paint0_linear)"/>
</g>
<path opacity="0.2" d="M276.952 523.905C282.486 523.905 286.972 519.421 286.972 513.888C286.972 508.356 282.486 503.871 276.952 503.871C271.418 503.871 266.932 508.356 266.932 513.888C266.932 519.421 271.418 523.905 276.952 523.905Z" fill="black"/>
<path d="M220.428 313.189C222.569 313.189 224.305 311.453 224.305 309.313C224.305 307.172 222.569 305.436 220.428 305.436C218.286 305.436 216.55 307.172 216.55 309.313C216.55 311.453 218.286 313.189 220.428 313.189Z" fill="white"/>
<path d="M497.157 538.156C499.299 538.156 501.035 536.42 501.035 534.28C501.035 532.139 499.299 530.404 497.157 530.404C495.016 530.404 493.28 532.139 493.28 534.28C493.28 536.42 495.016 538.156 497.157 538.156Z" fill="white"/>
<path d="M333.704 556.206C334.901 556.206 335.871 555.237 335.871 554.04C335.871 552.844 334.901 551.874 333.704 551.874C332.508 551.874 331.538 552.844 331.538 554.04C331.538 555.237 332.508 556.206 333.704 556.206Z" fill="white"/>
<path d="M813.42 451.323C814.616 451.323 815.586 450.353 815.586 449.157C815.586 447.961 814.616 446.991 813.42 446.991C812.223 446.991 811.253 447.961 811.253 449.157C811.253 450.353 812.223 451.323 813.42 451.323Z" fill="white"/>
<path d="M689.5 256.757C690.696 256.757 691.666 255.787 691.666 254.591C691.666 253.395 690.696 252.425 689.5 252.425C688.303 252.425 687.333 253.395 687.333 254.591C687.333 255.787 688.303 256.757 689.5 256.757Z" fill="white"/>
<path d="M865.116 351.76C866.313 351.76 867.283 350.79 867.283 349.594C867.283 348.398 866.313 347.428 865.116 347.428C863.92 347.428 862.95 348.398 862.95 349.594C862.95 350.79 863.92 351.76 865.116 351.76Z" fill="white"/>
<path d="M288.85 186.265C290.991 186.265 292.727 184.529 292.727 182.389C292.727 180.248 290.991 178.513 288.85 178.513C286.708 178.513 284.973 180.248 284.973 182.389C284.973 184.529 286.708 186.265 288.85 186.265Z" fill="white"/>
<path d="M182.286 444.65H178.835V441.2H177.428V444.65H173.977V446.056H177.428V449.499H178.835V446.056H182.286V444.65Z" fill="white"/>
<path d="M268.954 443.13H265.503V439.68H264.096V443.13H260.645V444.536H264.096V447.979H265.503V444.536H268.954V443.13Z" fill="white"/>
<path d="M392.874 513.052H389.423V509.602H388.016V513.052H384.565V514.458H388.016V517.901H389.423V514.458H392.874V513.052Z" fill="white"/>
<path d="M565.473 93.8991H563.899V92.3258H563.261V93.8991H561.687V94.5375H563.261V96.1107H563.899V94.5375H565.473V93.8991Z" fill="white"/>
<path d="M789.746 238.304H788.172V236.73H787.533V238.304H785.96V238.942H787.533V240.515H788.172V238.942H789.746V238.304Z" fill="white"/>
<path d="M657.463 332.547H655.889V330.973H655.251V332.547H653.677V333.185H655.251V334.758H655.889V333.185H657.463V332.547Z" fill="white"/>
<path d="M119.208 391.828H117.635V390.255H116.996V391.828H115.422V392.467H116.996V394.04H117.635V392.467H119.208V391.828Z" fill="white"/>
<path d="M183.829 521.033H182.256V519.459H181.617V521.033H180.043V521.671H181.617V523.244H182.256V521.671H183.829V521.033Z" fill="white"/>
<path d="M386.815 112.9H385.241V111.326H384.603V112.9H383.029V113.538H384.603V115.111H385.241V113.538H386.815V112.9Z" fill="white"/>
<path d="M291.024 340.147H289.45V338.574H288.812V340.147H287.238V340.785H288.812V342.358H289.45V340.785H291.024V340.147Z" fill="white"/>
<path d="M311.551 274.785H309.977V273.212H309.338V274.785H307.765V275.423H309.338V276.996H309.977V275.423H311.551V274.785Z" fill="white"/>
<g opacity="0.7">
<path opacity="0.7" d="M634.792 425.619C639.629 425.619 643.55 421.699 643.55 416.864C643.55 412.028 639.629 408.108 634.792 408.108C629.955 408.108 626.034 412.028 626.034 416.864C626.034 421.699 629.955 425.619 634.792 425.619Z" fill="url(#paint1_linear)"/>
</g>
<path opacity="0.2" d="M634.792 424.973C639.272 424.973 642.904 421.342 642.904 416.864C642.904 412.385 639.272 408.754 634.792 408.754C630.312 408.754 626.68 412.385 626.68 416.864C626.68 421.342 630.312 424.973 634.792 424.973Z" fill="black"/>
<path opacity="0.2" d="M656.634 483.016C661.643 483.016 665.704 478.957 665.704 473.949C665.704 468.941 661.643 464.882 656.634 464.882C651.625 464.882 647.564 468.941 647.564 473.949C647.564 478.957 651.625 483.016 656.634 483.016Z" fill="black"/>
<g opacity="0.1">
<path opacity="0.1" d="M382.071 426.159H395.459L394.562 420.041H382.968L382.071 426.159Z" fill="black"/>
</g>
<g opacity="0.1">
<path opacity="0.1" d="M536.667 426.159H550.063L549.166 420.041H537.564L536.667 426.159Z" fill="black"/>
</g>
<g opacity="0.1">
<path opacity="0.1" d="M477.406 426.159H490.802L489.897 420.041H478.303L477.406 426.159Z" fill="black"/>
</g>
<g opacity="0.1">
<path opacity="0.1" d="M504.212 114.906H423.695V118.03H504.212V114.906Z" fill="black"/>
</g>
<path d="M644.592 231.175C642.481 228.403 639.84 226.078 636.822 224.334C633.355 222.336 629.475 221.161 625.481 220.901C621.488 220.641 617.488 221.303 613.791 222.835C610.094 224.367 606.799 226.728 604.161 229.736C601.522 232.745 599.611 236.319 598.575 240.184C597.539 244.048 597.406 248.099 598.186 252.023C598.966 255.947 600.639 259.639 603.074 262.814C605.509 265.989 608.642 268.562 612.23 270.333C615.819 272.104 619.767 273.027 623.769 273.029C624.324 273.029 624.879 273.029 625.418 272.968C630.122 272.672 634.657 271.107 638.543 268.44C642.428 265.774 645.519 262.105 647.486 257.823C649.453 253.542 650.223 248.808 649.715 244.124C649.207 239.439 647.439 234.98 644.599 231.22L644.592 231.175Z" fill="url(#paint2_linear)"/>
<path opacity="0.2" d="M648.431 246.892C648.43 253.162 646.04 259.197 641.747 263.769C637.453 268.34 631.579 271.105 625.32 271.501C624.81 271.501 624.286 271.555 623.761 271.555C619.975 271.557 616.238 270.688 612.841 269.015C609.445 267.342 606.478 264.911 604.172 261.908C601.867 258.905 600.283 255.413 599.544 251.7C598.804 247.987 598.93 244.154 599.91 240.498C600.89 236.842 602.699 233.46 605.196 230.614C607.693 227.769 610.812 225.536 614.311 224.088C617.81 222.641 621.595 222.018 625.373 222.268C629.152 222.517 632.822 223.633 636.1 225.528C638.957 227.185 641.454 229.397 643.444 232.033C646.686 236.308 648.437 241.527 648.431 246.892Z" fill="black"/>
<path opacity="0.1" d="M617.687 231.243C616.411 231.792 615.181 232.44 614.007 233.181C613.224 233.609 612.55 234.213 612.038 234.944C611.785 235.313 611.645 235.748 611.637 236.195C611.629 236.643 611.752 237.082 611.993 237.46C612.593 238.281 613.749 238.402 614.767 238.463C615.837 238.599 616.924 238.49 617.945 238.144C618.635 237.803 619.262 237.348 619.8 236.799L621.921 234.876C622.682 234.207 623.442 233.287 623.145 232.345C622.97 232.008 622.713 231.721 622.399 231.509C622.084 231.296 621.721 231.166 621.344 231.129C619.515 230.773 617.619 231.106 616.022 232.064" fill="black"/>
<g opacity="0.1">
<path opacity="0.1" d="M608.83 257.927C609.548 257.927 610.13 257.346 610.13 256.628C610.13 255.91 609.548 255.328 608.83 255.328C608.112 255.328 607.53 255.91 607.53 256.628C607.53 257.346 608.112 257.927 608.83 257.927Z" fill="black"/>
</g>
<g opacity="0.1">
<path opacity="0.1" d="M635.226 253.162C637.854 253.162 639.985 251.032 639.985 248.404C639.985 245.777 637.854 243.647 635.226 243.647C632.597 243.647 630.466 245.777 630.466 248.404C630.466 251.032 632.597 253.162 635.226 253.162Z" fill="black"/>
</g>
<g opacity="0.1">
<path opacity="0.1" d="M643.49 232.033C643.476 233.277 643.105 234.491 642.42 235.53C641.736 236.569 640.768 237.39 639.63 237.894C638.493 238.399 637.234 238.566 636.005 238.375C634.775 238.185 633.626 237.646 632.694 236.821C631.762 235.997 631.087 234.922 630.749 233.725C630.411 232.527 630.424 231.258 630.787 230.068C631.15 228.878 631.847 227.818 632.796 227.013C633.745 226.208 634.905 225.692 636.138 225.528C638.998 227.184 641.498 229.396 643.49 232.033Z" fill="black"/>
</g>
<g opacity="0.1">
<path opacity="0.1" d="M643.93 261.089C641.808 264.109 639.034 266.613 635.812 268.415C632.59 270.218 629.004 271.273 625.32 271.501C625.32 271.159 625.274 270.817 625.274 270.468C625.276 268.303 625.879 266.182 627.016 264.34C628.153 262.498 629.779 261.008 631.714 260.036C633.648 259.063 635.814 258.647 637.971 258.833C640.128 259.019 642.191 259.8 643.93 261.089Z" fill="black"/>
</g>
<path d="M307.59 371.969C306.118 370.023 304.272 368.39 302.162 367.166C299.739 365.745 297.021 364.902 294.219 364.704C291.418 364.505 288.608 364.956 286.009 366.021C283.41 367.085 281.092 368.736 279.236 370.843C277.38 372.95 276.035 375.457 275.307 378.169C274.579 380.881 274.486 383.724 275.038 386.478C275.589 389.231 276.768 391.82 278.484 394.043C280.2 396.266 282.406 398.062 284.931 399.293C287.455 400.524 290.23 401.156 293.039 401.139C293.426 401.139 293.799 401.139 294.194 401.101C297.47 400.88 300.625 399.78 303.328 397.917C306.031 396.053 308.18 393.496 309.55 390.513C310.92 387.53 311.46 384.233 311.112 380.969C310.764 377.706 309.542 374.596 307.575 371.969H307.59Z" fill="url(#paint3_linear)"/>
<path opacity="0.2" d="M310.266 382.936C310.265 387.311 308.597 391.521 305.602 394.71C302.606 397.9 298.508 399.829 294.141 400.105C293.784 400.105 293.381 400.105 293.054 400.105C290.414 400.104 287.81 399.497 285.443 398.329C283.075 397.162 281.008 395.465 279.402 393.371C277.795 391.278 276.692 388.843 276.177 386.254C275.662 383.666 275.749 380.994 276.433 378.445C277.116 375.896 278.376 373.538 280.116 371.554C281.857 369.57 284.03 368.012 286.469 367.002C288.908 365.992 291.546 365.556 294.18 365.728C296.814 365.9 299.373 366.675 301.66 367.994C303.656 369.155 305.399 370.706 306.784 372.554C309.05 375.54 310.274 379.188 310.266 382.936Z" fill="black"/>
<path opacity="0.1" d="M288.812 372.022C287.923 372.401 287.066 372.85 286.25 373.367C285.706 373.671 285.236 374.092 284.874 374.599C284.705 374.86 284.615 375.165 284.615 375.476C284.615 375.788 284.705 376.093 284.874 376.354C285.126 376.603 285.429 376.795 285.763 376.915C286.096 377.036 286.451 377.083 286.805 377.054C287.552 377.15 288.311 377.075 289.025 376.833C289.508 376.594 289.948 376.276 290.325 375.891L291.8 374.553C292.317 374.082 292.879 373.443 292.651 372.79C292.535 372.551 292.358 372.346 292.138 372.197C291.917 372.047 291.662 371.958 291.397 371.939C290.124 371.689 288.804 371.922 287.694 372.592" fill="black"/>
<g opacity="0.1">
<path opacity="0.1" d="M282.631 390.628C283.131 390.628 283.536 390.223 283.536 389.723C283.536 389.224 283.131 388.819 282.631 388.819C282.131 388.819 281.726 389.224 281.726 389.723C281.726 390.223 282.131 390.628 282.631 390.628Z" fill="black"/>
</g>
<g opacity="0.1">
<path opacity="0.1" d="M301.052 387.314C302.887 387.314 304.374 385.827 304.374 383.993C304.374 382.158 302.887 380.671 301.052 380.671C299.217 380.671 297.729 382.158 297.729 383.993C297.729 385.827 299.217 387.314 301.052 387.314Z" fill="black"/>
</g>
<g opacity="0.1">
<path opacity="0.1" d="M306.792 372.569C306.785 373.445 306.526 374.301 306.045 375.034C305.565 375.766 304.883 376.345 304.083 376.701C303.282 377.057 302.395 377.174 301.53 377.04C300.664 376.905 299.855 376.524 299.2 375.942C298.545 375.36 298.071 374.602 297.836 373.758C297.601 372.914 297.614 372.02 297.873 371.183C298.133 370.346 298.628 369.602 299.3 369.039C299.971 368.476 300.791 368.119 301.66 368.009C303.659 369.17 305.404 370.721 306.792 372.569Z" fill="black"/>
</g>
<g opacity="0.1">
<path opacity="0.1" d="M307.126 392.839C305.645 394.946 303.709 396.693 301.462 397.951C299.214 399.209 296.712 399.945 294.141 400.105C294.141 399.87 294.141 399.626 294.141 399.345C294.142 397.835 294.563 396.355 295.356 395.07C296.149 393.785 297.284 392.745 298.633 392.067C299.983 391.388 301.494 391.098 302.999 391.228C304.504 391.357 305.943 391.902 307.157 392.801L307.126 392.839Z" fill="black"/>
</g>
<path d="M791.973 321.42C792.746 321.42 793.372 320.794 793.372 320.021C793.372 319.249 792.746 318.623 791.973 318.623C791.201 318.623 790.574 319.249 790.574 320.021C790.574 320.794 791.201 321.42 791.973 321.42Z" fill="white"/>
<path d="M446.022 558.134H442.579C440.922 558.134 439.579 559.477 439.579 561.134V602.349C439.579 604.006 440.922 605.349 442.579 605.349H446.022C447.679 605.349 449.022 604.006 449.022 602.349V561.134C449.022 559.477 447.679 558.134 446.022 558.134Z" fill="url(#paint4_linear)"/>
<path d="M464.436 562.856H461.937C460.28 562.856 458.937 564.199 458.937 565.856V602.349C458.937 604.006 460.28 605.349 461.937 605.349H464.436C466.093 605.349 467.436 604.006 467.436 602.349V565.856C467.436 564.199 466.093 562.856 464.436 562.856Z" fill="url(#paint5_linear)"/>
<path d="M415.433 561.742H412.132C410.475 561.742 409.132 563.085 409.132 564.742V601.742C409.132 603.399 410.475 604.742 412.132 604.742H415.433C417.09 604.742 418.433 603.399 418.433 601.742V564.742C418.433 563.085 417.09 561.742 415.433 561.742Z" fill="url(#paint6_linear)"/>
<path d="M495.163 561.742H491.862C490.205 561.742 488.862 563.085 488.862 564.742V601.742C488.862 603.399 490.205 604.742 491.862 604.742H495.163C496.82 604.742 498.163 603.399 498.163 601.742V564.742C498.163 563.085 496.82 561.742 495.163 561.742Z" fill="url(#paint7_linear)"/>
<g opacity="0.1">
<path opacity="0.1" d="M410.329 554.865H417.236L416.772 549.488H410.793L410.329 554.865Z" fill="black"/>
</g>
<g opacity="0.1">
<path opacity="0.1" d="M490.059 554.865H496.965L496.502 549.488H490.523L490.059 554.865Z" fill="black"/>
</g>
<g opacity="0.1">
<path opacity="0.1" d="M459.495 554.865H466.405L465.938 549.488H459.959L459.495 554.865Z" fill="black"/>
</g>
<g opacity="0.1">
<path opacity="0.1" d="M421.582 329.584C420.058 324.647 418.308 320.005 416.373 316.496C415.826 315.467 415.097 314.771 414.296 314.515C413.495 314.258 412.667 314.455 411.938 315.074C412.358 315.431 412.738 315.913 413.059 316.496C414.994 320.005 416.74 324.647 418.268 329.584C422.789 344.432 425.129 360.926 425.085 377.652V551.844H428.407V377.673C428.45 360.939 426.108 344.437 421.582 329.584Z" fill="black"/>
</g>
<g opacity="0.1">
<path opacity="0.1" d="M487.031 330.065C488.555 325.127 490.305 320.485 492.24 316.976C492.603 316.312 493.04 315.78 493.526 315.411C492.808 314.875 492.008 314.738 491.241 315.019C490.474 315.3 489.779 315.985 489.253 316.976C487.318 320.485 485.572 325.127 484.044 330.065C479.522 344.912 477.183 361.407 477.226 378.133V552.324H480.218V378.16C480.17 361.426 482.509 344.921 487.031 330.065Z" fill="black"/>
</g>
<g opacity="0.1">
<path opacity="0.1" d="M473.324 281.386H431.798V284.132H473.324V281.386Z" fill="black"/>
</g>
<path d="M450.205 567.577H438.361L441.119 547.229H447.448L450.205 567.577Z" fill="#535461"/>
<path d="M468.908 567.577H457.465L460.151 548.691H466.222L468.908 567.577Z" fill="#535461"/>
<path d="M499.163 566.463H487.862L490.523 547.229H496.502L499.163 566.463Z" fill="#535461"/>
<path d="M419.433 566.463H408.132L410.793 547.229H416.772L419.433 566.463Z" fill="#535461"/>
<g opacity="0.1">
<path opacity="0.1" d="M440.559 554.865H447.469L447.005 549.488H441.022L440.559 554.865Z" fill="black"/>
</g>
<path d="M410.833 316.722C411.184 316.062 411.613 315.535 412.091 315.174C412.569 314.813 413.086 314.626 413.609 314.626C414.132 314.626 414.649 314.813 415.127 315.174C415.605 315.535 416.034 316.062 416.385 316.722C418.32 320.231 420.066 324.873 421.594 329.811C426.115 344.658 428.455 361.153 428.411 377.879V552.084H399V377.158C398.963 360.89 401.189 344.839 405.495 330.319C407.531 323.534 409.39 319.311 410.833 316.722Z" fill="#E0E0E0"/>
<path d="M399.166 380.873L406.14 380.928V395.581H399.166V380.873Z" fill="#535461"/>
<path d="M421.424 380.873L428.399 380.928V395.581H421.424V380.873Z" fill="#535461"/>
<path d="M495.147 316.722C494.796 316.062 494.368 315.535 493.89 315.174C493.412 314.813 492.894 314.626 492.372 314.626C491.849 314.626 491.331 314.813 490.853 315.174C490.375 315.535 489.947 316.062 489.596 316.722C487.661 320.231 485.915 324.873 484.387 329.811C479.865 344.658 477.526 361.153 477.569 377.879V552.084H506.972V377.158C507.009 360.89 504.783 344.839 500.477 330.319C498.437 323.534 496.579 319.311 495.147 316.722Z" fill="#E0E0E0"/>
<path d="M477.565 380.873L484.544 380.928V395.581H477.565V380.873Z" fill="#535461"/>
<path d="M499.824 380.873L506.803 380.928V395.581H499.824V380.873Z" fill="#535461"/>
<path d="M457.14 180.141C456.654 179.157 456.047 178.366 455.363 177.824C454.679 177.281 453.933 177 453.178 177C452.424 177 451.678 177.281 450.994 177.824C450.31 178.366 449.703 179.157 449.217 180.141C446.456 185.401 443.976 192.357 441.783 199.759C435.332 221.692 432.051 246.584 432.051 271.827V551.37H474.016V270.701C474.016 246.172 470.883 221.946 464.743 200.515C461.836 190.345 459.184 184.027 457.14 180.141Z" fill="#EEEEEE"/>
<path d="M459.256 211.192H446.23C443.781 211.192 441.795 214.574 441.795 218.746V220.73C441.795 224.902 443.781 228.284 446.23 228.284H459.256C461.705 228.284 463.691 224.902 463.691 220.73V218.746C463.691 214.574 461.705 211.192 459.256 211.192Z" fill="#3626FF" fill-opacity="0.17"/>
<path d="M484.875 388.227H418.433V392.752H484.875V388.227Z" fill="#535461"/>
<path opacity="0.7" d="M528.293 612.91C526.916 598.768 522.461 586.029 515.815 577.232C509.17 568.436 500.822 564.228 492.436 565.446C484.05 566.665 476.242 573.222 470.568 583.809C464.893 594.396 461.77 608.236 461.819 622.571C461.819 622.853 461.819 623.127 461.819 623.409C460.581 623.728 459.356 624.176 458.15 624.748C456.606 614.272 453.187 604.874 448.368 597.853C443.549 590.833 437.567 586.539 431.252 585.565C424.936 584.591 418.599 586.986 413.118 592.418C407.637 597.85 403.283 606.05 400.659 615.883C397.955 614.106 395.114 613 392.225 612.601C391.764 608.145 390.991 603.799 389.923 599.657C389.421 586.586 386.045 574.318 380.468 565.301C374.89 556.283 367.522 551.178 359.832 551.005C352.143 550.831 344.698 555.602 338.982 564.365C333.267 573.129 329.701 585.24 328.997 598.283C327.414 603.993 326.402 610.113 326.005 616.391C319.007 621.351 313.339 630.559 310.099 642.231C306.86 653.903 306.28 667.207 308.471 679.566H553.426C554.703 672.358 555.047 664.763 554.435 657.306C553.823 649.849 552.269 642.707 549.88 636.371C547.491 630.036 544.324 624.657 540.597 620.607C536.871 616.557 532.673 613.931 528.293 612.91Z" fill="url(#paint8_linear)"/>
<path opacity="0.7" d="M514.128 612.91C512.751 598.768 508.296 586.029 501.651 577.232C495.005 568.436 486.657 564.228 478.271 565.446C469.886 566.665 462.077 573.222 456.403 583.809C450.729 594.396 447.605 608.236 447.655 622.571C447.655 622.853 447.655 623.127 447.655 623.409C446.417 623.728 445.192 624.176 443.986 624.748C442.441 614.272 439.023 604.874 434.204 597.853C429.384 590.833 423.403 586.539 417.087 585.565C410.772 584.591 404.435 586.986 398.953 592.418C393.472 597.85 389.118 606.05 386.495 615.883C383.79 614.106 380.95 613 378.06 612.601C377.6 608.145 376.827 603.799 375.758 599.657C375.257 586.586 371.881 574.318 366.303 565.301C360.726 556.283 353.357 551.178 345.668 551.005C337.978 550.831 330.533 555.602 324.818 564.365C319.102 573.129 315.536 585.24 314.832 598.283C313.249 603.993 312.238 610.113 311.841 616.391C304.842 621.351 299.174 630.559 295.935 642.231C292.695 653.903 292.115 667.207 294.307 679.566H539.262C540.539 672.358 540.883 664.763 540.27 657.306C539.658 649.849 538.104 642.707 535.715 636.371C533.326 630.036 530.16 624.657 526.433 620.607C522.706 616.557 518.508 613.931 514.128 612.91Z" fill="url(#paint9_linear)"/>
<path opacity="0.7" d="M555.293 615.91C553.916 601.768 549.461 589.029 542.815 580.232C536.17 571.436 527.822 567.228 519.436 568.446C511.05 569.665 503.242 576.222 497.568 586.809C491.893 597.396 488.77 611.236 488.819 625.571C488.819 625.853 488.819 626.127 488.819 626.409C487.581 626.728 486.356 627.176 485.15 627.748C483.606 617.272 480.187 607.874 475.368 600.853C470.549 593.833 464.567 589.539 458.252 588.565C451.936 587.591 445.599 589.986 440.118 595.418C434.637 600.85 430.283 609.05 427.659 618.883C424.955 617.106 422.114 616 419.225 615.601C418.764 611.145 417.991 606.799 416.923 602.657C416.421 589.586 413.045 577.318 407.468 568.301C401.89 559.283 394.522 554.178 386.832 554.005C379.143 553.831 371.698 558.602 365.982 567.365C360.267 576.129 356.701 588.24 355.997 601.283C354.414 606.993 353.402 613.113 353.005 619.391C346.007 624.351 340.339 633.559 337.099 645.231C333.86 656.903 333.28 670.207 335.471 682.566H580.426C581.703 675.358 582.047 667.763 581.435 660.306C580.823 652.849 579.269 645.707 576.88 639.371C574.491 633.036 571.324 627.657 567.597 623.607C563.871 619.557 559.673 616.931 555.293 615.91Z" fill="url(#paint10_linear)"/>
<path opacity="0.7" d="M541.128 615.91C539.751 601.768 535.296 589.029 528.651 580.232C522.005 571.436 513.657 567.228 505.271 568.446C496.886 569.665 489.077 576.222 483.403 586.809C477.729 597.396 474.605 611.236 474.655 625.571C474.655 625.853 474.655 626.127 474.655 626.409C473.417 626.728 472.192 627.176 470.986 627.748C469.441 617.272 466.023 607.874 461.204 600.853C456.384 593.833 450.403 589.539 444.087 588.565C437.772 587.591 431.435 589.986 425.953 595.418C420.472 600.85 416.118 609.05 413.495 618.883C410.79 617.106 407.95 616 405.06 615.601C404.6 611.145 403.827 606.799 402.758 602.657C402.257 589.586 398.881 577.318 393.303 568.301C387.726 559.283 380.357 554.178 372.668 554.005C364.978 553.831 357.533 558.602 351.818 567.365C346.102 576.129 342.536 588.24 341.832 601.283C340.249 606.993 339.238 613.113 338.841 619.391C331.842 624.351 326.174 633.559 322.935 645.231C319.695 656.903 319.115 670.207 321.307 682.566H566.262C567.539 675.358 567.883 667.763 567.27 660.306C566.658 652.849 565.104 645.707 562.715 639.371C560.326 633.036 557.16 627.657 553.433 623.607C549.706 619.557 545.508 616.931 541.128 615.91Z" fill="url(#paint11_linear)"/>
<path opacity="0.7" d="M606.293 612.91C604.916 598.768 600.461 586.029 593.815 577.232C587.17 568.436 578.822 564.228 570.436 565.446C562.05 566.665 554.242 573.222 548.568 583.809C542.893 594.396 539.77 608.236 539.819 622.571C539.819 622.853 539.819 623.127 539.819 623.409C538.581 623.728 537.356 624.176 536.15 624.748C534.606 614.272 531.187 604.874 526.368 597.853C521.549 590.833 515.567 586.539 509.252 585.565C502.936 584.591 496.599 586.986 491.118 592.418C485.637 597.85 481.283 606.05 478.659 615.883C475.955 614.106 473.114 613 470.225 612.601C469.764 608.145 468.991 603.799 467.923 599.657C467.421 586.586 464.045 574.318 458.468 565.301C452.89 556.283 445.522 551.178 437.832 551.005C430.143 550.831 422.698 555.602 416.982 564.365C411.267 573.129 407.701 585.24 406.997 598.283C405.414 603.993 404.402 610.113 404.005 616.391C397.007 621.351 391.339 630.559 388.099 642.231C384.86 653.903 384.28 667.207 386.471 679.566H631.426C632.703 672.358 633.047 664.763 632.435 657.306C631.823 649.849 630.269 642.707 627.88 636.371C625.491 630.036 622.324 624.657 618.597 620.607C614.871 616.557 610.673 613.931 606.293 612.91Z" fill="url(#paint12_linear)"/>
<path opacity="0.7" d="M592.128 612.91C590.751 598.768 586.296 586.029 579.651 577.232C573.005 568.436 564.657 564.228 556.271 565.446C547.886 566.665 540.077 573.222 534.403 583.809C528.729 594.396 525.605 608.236 525.655 622.571C525.655 622.853 525.655 623.127 525.655 623.409C524.417 623.728 523.192 624.176 521.986 624.748C520.441 614.272 517.023 604.874 512.204 597.853C507.384 590.833 501.403 586.539 495.087 585.565C488.772 584.591 482.435 586.986 476.953 592.418C471.472 597.85 467.118 606.05 464.495 615.883C461.79 614.106 458.95 613 456.06 612.601C455.6 608.145 454.827 603.799 453.758 599.657C453.257 586.586 449.881 574.318 444.303 565.301C438.726 556.283 431.357 551.178 423.668 551.005C415.978 550.831 408.533 555.602 402.818 564.365C397.102 573.129 393.536 585.24 392.832 598.283C391.249 603.993 390.238 610.113 389.841 616.391C382.842 621.351 377.174 630.559 373.935 642.231C370.695 653.903 370.115 667.207 372.307 679.566H617.262C618.539 672.358 618.883 664.763 618.27 657.306C617.658 649.849 616.104 642.707 613.715 636.371C611.326 630.036 608.16 624.657 604.433 620.607C600.706 616.557 596.508 613.931 592.128 612.91Z" fill="url(#paint13_linear)"/>
<defs>
<linearGradient id="paint0_linear" x1="276.952" y1="524.377" x2="276.952" y2="503.408" gradientUnits="userSpaceOnUse">
<stop stop-color="#808080" stop-opacity="0.25"/>
<stop offset="0.54" stop-color="#808080" stop-opacity="0.12"/>
<stop offset="1" stop-color="#808080" stop-opacity="0.1"/>
</linearGradient>
<linearGradient id="paint1_linear" x1="13730.7" y1="10339.6" x2="13730.7" y2="9936.34" gradientUnits="userSpaceOnUse">
<stop stop-color="#808080" stop-opacity="0.25"/>
<stop offset="0.54" stop-color="#808080" stop-opacity="0.12"/>
<stop offset="1" stop-color="#808080" stop-opacity="0.1"/>
</linearGradient>
<linearGradient id="paint2_linear" x1="40571.3" y1="21575.8" x2="40571.3" y2="17992.9" gradientUnits="userSpaceOnUse">
<stop stop-color="#808080" stop-opacity="0.25"/>
<stop offset="0.54" stop-color="#808080" stop-opacity="0.12"/>
<stop offset="1" stop-color="#808080" stop-opacity="0.1"/>
</linearGradient>
<linearGradient id="paint3_linear" x1="12368.6" y1="21445.3" x2="12368.6" y2="19697.4" gradientUnits="userSpaceOnUse">
<stop stop-color="#808080" stop-opacity="0.25"/>
<stop offset="0.54" stop-color="#808080" stop-opacity="0.12"/>
<stop offset="1" stop-color="#808080" stop-opacity="0.1"/>
</linearGradient>
<linearGradient id="paint4_linear" x1="444.298" y1="558.134" x2="444.298" y2="605.357" gradientUnits="userSpaceOnUse">
<stop stop-color="#E0E0E0"/>
<stop offset="0.31" stop-color="#FCCC63"/>
<stop offset="0.77" stop-color="#F55F44"/>
</linearGradient>
<linearGradient id="paint5_linear" x1="463.185" y1="562.856" x2="463.185" y2="605.356" gradientUnits="userSpaceOnUse">
<stop stop-color="#E0E0E0"/>
<stop offset="0.31" stop-color="#FCCC63"/>
<stop offset="0.77" stop-color="#F55F44"/>
</linearGradient>
<linearGradient id="paint6_linear" x1="413.781" y1="561.742" x2="413.781" y2="604.749" gradientUnits="userSpaceOnUse">
<stop stop-color="#E0E0E0"/>
<stop offset="0.31" stop-color="#FCCC63"/>
<stop offset="0.77" stop-color="#F55F44"/>
</linearGradient>
<linearGradient id="paint7_linear" x1="493.512" y1="561.742" x2="493.512" y2="604.742" gradientUnits="userSpaceOnUse">
<stop stop-color="#E0E0E0"/>
<stop offset="0.440625" stop-color="#FCCC63"/>
<stop offset="1" stop-color="#F55F44"/>
</linearGradient>
<linearGradient id="paint8_linear" x1="144031" y1="107910" x2="144031" y2="83835" gradientUnits="userSpaceOnUse">
<stop stop-color="#FCFCFC"/>
<stop offset="0.404167" stop-color="#A8A4A4" stop-opacity="0.27"/>
</linearGradient>
<linearGradient id="paint9_linear" x1="144017" y1="107910" x2="144017" y2="83835" gradientUnits="userSpaceOnUse">
<stop stop-color="#FCFCFC"/>
<stop offset="0.404167" stop-color="white" stop-opacity="0.64"/>
</linearGradient>
<linearGradient id="paint10_linear" x1="144058" y1="107913" x2="144058" y2="83838" gradientUnits="userSpaceOnUse">
<stop stop-color="#FCFCFC"/>
<stop offset="0.404167" stop-color="#A8A4A4" stop-opacity="0.27"/>
</linearGradient>
<linearGradient id="paint11_linear" x1="144044" y1="107913" x2="144044" y2="83838" gradientUnits="userSpaceOnUse">
<stop stop-color="#FCFCFC"/>
<stop offset="0.404167" stop-color="white" stop-opacity="0.64"/>
</linearGradient>
<linearGradient id="paint12_linear" x1="144109" y1="107910" x2="144109" y2="83835" gradientUnits="userSpaceOnUse">
<stop stop-color="#FCFCFC"/>
<stop offset="0.404167" stop-color="#A8A4A4" stop-opacity="0.27"/>
</linearGradient>
<linearGradient id="paint13_linear" x1="144095" y1="107910" x2="144095" y2="83835" gradientUnits="userSpaceOnUse">
<stop stop-color="#FCFCFC"/>
<stop offset="0.404167" stop-color="white" stop-opacity="0.64"/>
</linearGradient>
</defs>
</svg>
